<svg xmlns="http://www.w3.org/2000/svg" version="1.1" xmlns:xlink="http://www.w3.org/1999/xlink" xmlns:svgjs="http://svgjs.com/svgjs" width="1700" height="560" preserveAspectRatio="none" viewBox="0 0 1700 560"><g mask="url(&quot;#SvgjsMask1007&quot;)" fill="none"><rect width="1700" height="560" x="0" y="0" fill="rgba(223, 181, 237, 1)"></rect><path d="M494.3 58.04 a32.35 32.35 0 1 0 64.7 0 a32.35 32.35 0 1 0 -64.7 0z" fill="#e73635"></path><path d="M1434.63 86.09a15.86 15.86 0 1 0 16.91-26.84z" stroke="#037b0b"></path><path d="M1428.67 290.51L1457.39 290.51L1457.39 319.23L1428.67 319.23z" fill="#037b0b"></path><path d="M1086.53 263.14 a22.29 22.29 0 1 0 44.58 0 a22.29 22.29 0 1 0 -44.58 0z" stroke="#d3b714"></path><path d="M1145.39 500.39 a9.68 9.68 0 1 0 19.36 0 a9.68 9.68 0 1 0 -19.36 0z" fill="#037b0b"></path><path d="M1366.75 120.27 a10.52 10.52 0 1 0 21.04 0 a10.52 10.52 0 1 0 -21.04 0z" stroke="#e73635"></path><path d="M767.3 114.88 a28.01 28.01 0 1 0 56.02 0 a28.01 28.01 0 1 0 -56.02 0z" fill="#037b0b"></path><path d="M1399.22 453.38a9.57 9.57 0 1 0-19.14-0.17z" fill="#e73635"></path><path d="M702.65 521.42a13.56 13.56 0 1 0-9.13 25.53z" stroke="#037b0b"></path><path d="M1214.7 557.66L1232.39 557.66L1232.39 563.69L1214.7 563.69z" fill="#037b0b"></path><path d="M664.84 366.93 a51.99 51.99 0 1 0 103.98 0 a51.99 51.99 0 1 0 -103.98 0z" fill="#037b0b"></path><path d="M815.01 447.92L845.77 447.92L845.77 478.68L815.01 478.68z" stroke="#e73635"></path><path d="M1022.69 76.8L1026.64 76.8L1026.64 80.75L1022.69 80.75z" fill="#037b0b"></path><path d="M363.34 205.3 a11.88 11.88 0 1 0 23.76 0 a11.88 11.88 0 1 0 -23.76 0z" fill="#037b0b"></path><path d="M1362.41 302.98L1381.96 302.98L1381.96 322.53L1362.41 322.53z" fill="#d3b714"></path><path d="M1610.34 117.59 a26.29 26.29 0 1 0 52.58 0 a26.29 26.29 0 1 0 -52.58 0z" stroke="#037b0b"></path><path d="M259.17 149.1L268.6 149.1L268.6 158.53L259.17 158.53z" stroke="#d3b714"></path><path d="M1390.06 528.73a27.22 27.22 0 1 0-53.32 10.96z" fill="#037b0b"></path><path d="M447.75 119.18 a24.24 24.24 0 1 0 48.48 0 a24.24 24.24 0 1 0 -48.48 0z" stroke="#e73635"></path><path d="M1273.31 400.54L1307.7 400.54L1307.7 417.47L1273.31 417.47z" fill="#d3b714"></path><path d="M613.3 299.11 a6.81 6.81 0 1 0 13.62 0 a6.81 6.81 0 1 0 -13.62 0z" stroke="#d3b714"></path><path d="M1548.86 281.36L1567.41 281.36L1567.41 328.81L1548.86 328.81z" fill="#037b0b"></path><path d="M1465.94 556.54a3.77 3.77 0 1 0 2.66-7.05z" stroke="#037b0b"></path><path d="M1412.8 527.67 a1.38 1.38 0 1 0 2.76 0 a1.38 1.38 0 1 0 -2.76 0z" fill="#e73635"></path><path d="M140.92 163.71 a20.63 20.63 0 1 0 41.26 0 a20.63 20.63 0 1 0 -41.26 0z" stroke="#d3b714"></path><path d="M-16.48 65.88 a28.64 28.64 0 1 0 57.28 0 a28.64 28.64 0 1 0 -57.28 0z" stroke="#037b0b"></path><path d="M1136.83 190.16L1192.72 190.16L1192.72 246.05L1136.83 246.05z" fill="#d3b714"></path><path d="M363.56 476.22L400.89 476.22L400.89 513.55L363.56 513.55z" fill="#d3b714"></path><path d="M739.88 406.94 a22.48 22.48 0 1 0 44.96 0 a22.48 22.48 0 1 0 -44.96 0z" fill="#d3b714"></path><path d="M1460.84 273.12a6.79 6.79 0 1 0 11.42 7.34z" fill="#e73635"></path><path d="M1221.46 550.56L1232.01 550.56L1232.01 561.11L1221.46 561.11z" fill="#d3b714"></path><path d="M1145.86 215.35L1158.99 215.35L1158.99 222.05L1145.86 222.05z" fill="#037b0b"></path><path d="M715.35 173.21L719.64 173.21L719.64 214.61L715.35 214.61z" fill="#037b0b"></path><path d="M309.1 246.11a12.35 12.35 0 1 0 14.94-19.67z" stroke="#e73635"></path><path d="M243.4 380.36a32.01 32.01 0 1 0 45.31-45.23z" fill="#e73635"></path><path d="M119.01 180.82L160.69 180.82L160.69 226.09L119.01 226.09z" stroke="#e73635"></path><path d="M864.53 297.22L884.37 297.22L884.37 351.8L864.53 351.8z" fill="#037b0b"></path><path d="M-0.24 274.38 a23.42 23.42 0 1 0 46.84 0 a23.42 23.42 0 1 0 -46.84 0z" stroke="#e73635"></path></g><defs><mask id="SvgjsMask1007"><rect width="1700" height="560" fill="#ffffff"></rect></mask></defs></svg>