<svg xmlns="http://www.w3.org/2000/svg" version="1.1" xmlns:xlink="http://www.w3.org/1999/xlink" xmlns:svgjs="http://svgjs.com/svgjs" width="1980" height="1450" preserveAspectRatio="none" viewBox="0 0 1980 1450"><g mask="url(&quot;#SvgjsMask1007&quot;)" fill="none"><rect width="1980" height="1450" x="0" y="0" fill="rgba(231, 218, 235, 1)"></rect><path d="M2046 1450L0 1450 L0 792.03Q56.25 683.28, 165 739.54Q223.8 699.34, 264 758.13Q383.29 778.42, 363 897.71Q480.42 850.13, 528 967.56Q592.54 867.1, 693 931.64Q734.8 808.44, 858 850.24Q911.05 738.29, 1023 791.33Q1121.7 725.03, 1188 823.72Q1283.66 754.38, 1353 850.05Q1440.79 772.84, 1518 860.63Q1615.92 793.55, 1683 891.47Q1686.64 796.11, 1782 799.75Q1826.39 745.14, 1881 789.53Q1937.58 681.11, 2046 737.68z" fill="rgba(110, 37, 134, 1)"></path><path d="M2079 1450L0 1450 L0 1153.95Q11.52 1066.47, 99 1077.98Q71.87 951.85, 198 924.72Q348.06 975.78, 297 1125.84Q255.01 984.85, 396 942.85Q432.37 880.22, 495 916.58Q608.06 864.64, 660 977.71Q745.91 964.62, 759 1050.53Q821.89 1014.42, 858 1077.31Q915.84 970.15, 1023 1027.99Q1065.08 971.07, 1122 1013.15Q1180.14 906.29, 1287 964.43Q1310.22 888.65, 1386 911.87Q1477.59 838.46, 1551 930.05Q1744.52 958.57, 1716 1152.08Q1713.76 1050.84, 1815 1048.61Q1870.32 938.93, 1980 994.25Q2018.99 934.24, 2079 973.23z" fill="rgba(177, 23, 132, 1)"></path><path d="M2046 1450L0 1450 L0 1263.87Q66.14 1165.01, 165 1231.16Q237 1204.16, 264 1276.15Q270.84 1183.99, 363 1190.82Q364.38 1093.19, 462 1094.57Q547.12 1080.69, 561 1165.81Q653.93 1159.74, 660 1252.67Q784.66 1212.33, 825 1336.99Q878.94 1225.93, 990 1279.88Q1062.61 1187.49, 1155 1260.09Q1221.4 1161.49, 1320 1227.89Q1360.3 1103.19, 1485 1143.49Q1594.66 1088.15, 1650 1197.81Q1730.87 1179.68, 1749 1260.55Q1774.46 1187.01, 1848 1212.46Q1863.17 1128.63, 1947 1143.8Q1988.85 1086.65, 2046 1128.5z" fill="rgba(167, 146, 218, 1)"></path><path d="M2145 1450L0 1450 L0 1372.3Q53.83 1261.13, 165 1314.96Q231.82 1282.78, 264 1349.61Q318.86 1305.46, 363 1360.32Q451.8 1284.12, 528 1372.92Q585.99 1265.91, 693 1323.9Q815.03 1280.93, 858 1402.95Q962.01 1341.96, 1023 1445.97Q1100.1 1358.07, 1188 1435.16Q1227.44 1375.6, 1287 1415.04Q1363.97 1393.01, 1386 1469.98Q1396.13 1381.11, 1485 1391.23Q1529.14 1270.37, 1650 1314.51Q1750.25 1249.76, 1815 1350.01Q1941.96 1311.97, 1980 1438.93Q2067.9 1361.83, 2145 1449.73z" fill="rgba(120, 71, 205, 1)"></path></g><defs><mask id="SvgjsMask1007"><rect width="1980" height="1450" fill="#ffffff"></rect></mask></defs></svg>