<svg height="64" id="svg8" version="1.1" viewBox="0 0 16.933333 16.933334" width="64" xmlns="http://www.w3.org/2000/svg"><defs id="defs2"></defs><g id="layer1"><path d="M 31.998047,0 C 30.239484,0.00789918 29.128963,0.19048822 28.279297,0.65625 27.429631,1.1220126 27.014112,1.8883929 26.759766,2.4726562 26.505419,3.05692 26.339645,3.5198113 25.880859,4.0371094 25.422075,4.5544073 24.645378,5.1560007 23.113281,5.7734375 21.558344,6.4000726 20.572952,6.5054629 19.878906,6.4453125 19.184862,6.3851628 18.738102,6.1542097 18.130859,5.90625 17.523617,5.6582903 16.653535,5.4162465 15.701172,5.7128906 14.748808,6.0095363 13.794116,6.7030425 12.46875,8.0019531 c -1.325364,1.2989084 -2.041034,2.2354379 -2.355469,3.1816409 -0.3144349,0.946202 -0.08416,1.825687 0.154297,2.435547 0.238458,0.609857 0.461406,1.058873 0.509766,1.75 0.04836,0.691127 -0.07572,1.664579 -0.730469,3.203125 -0.6522013,1.53255 -1.2654673,2.246588 -1.7871094,2.65039 C 7.7381232,21.62646 7.2648894,21.750679 6.6289062,21.998047 5.9929244,22.245413 5.1699095,22.740987 4.7246094,23.695312 4.2793096,24.649643 4.1035156,25.927845 4.1035156,28 c 0,0.198119 0.00452,0.382394 0.00781,0.566406 C 1.2210548,29.608354 0,32.051312 0,34 v 8.169922 c 0,1.76781 0.79515396,3.946332 1.5429688,6.060547 0.3739086,1.057103 0.7486201,2.083775 1.0175781,2.939453 0.2689587,0.855666 0.4140625,1.586015 0.4140625,1.83789 v 0.990235 C 2.4315449,54.012031 1.9988174,54.456761 2,55 v 7.994141 C 1.9968101,63.547146 2.4430806,63.997797 2.9960938,64 H 19.001953 c 0.553013,-0.0022 0.999283,-0.452854 0.996094,-1.005859 V 55 c 0.0012,-0.488375 -0.3506,-0.906209 -0.832031,-0.988281 0.124429,-0.234407 0.284776,-0.500294 0.484375,-0.841797 0.465161,-0.795863 1.023661,-1.912037 1.246093,-3.580078 0.578711,0.07835 1.299016,0.264867 2.216797,0.634765 1.532097,0.617432 2.308796,1.217083 2.767578,1.734375 0.458784,0.517285 0.62456,0.980193 0.878907,1.564454 0.254343,0.584269 0.669882,1.350602 1.519531,1.816406 0.849649,0.465804 1.962139,0.648248 3.720703,0.65625 1.758563,-0.0079 2.869093,-0.190492 3.71875,-0.65625 0.849656,-0.465804 1.267141,-1.232129 1.521484,-1.816406 0.254363,-0.584272 0.418164,-1.047165 0.876954,-1.564454 0.458781,-0.517304 1.237431,-1.116943 2.769531,-1.734375 0.918043,-0.369978 1.638004,-0.55645 2.216797,-0.634765 0.222463,1.668011 0.778986,2.784223 1.24414,3.580078 0.228775,0.391374 0.360756,0.592801 0.490235,0.851562 C 44.266029,54.112571 44.005049,54.560672 44.001953,55 v 7.994141 C 43.998752,63.547146 44.445038,63.9978 44.998047,64 h 15.996094 c 0.55607,0.0021 1.007111,-0.4498 1.003906,-1.005859 V 55 c -0.01323,-0.532588 -0.442017,-0.9612 -0.974609,-0.974609 v -1.017579 c 0,-0.251867 0.145096,-0.982224 0.414062,-1.83789 0.268951,-0.855678 0.637814,-1.88235 1.011719,-2.939453 C 63.197036,46.116254 64,43.937732 64,42.169922 V 34 c 0,-1.948298 -1.222314,-4.391292 -4.111328,-5.433594 0.0033,-0.18401 0.0059,-0.368288 0.0059,-0.566406 0,-2.072155 -0.173821,-3.350357 -0.61914,-4.304688 -0.445599,-0.954326 -1.270277,-1.449898 -1.90625,-1.697265 -0.635993,-0.247368 -1.109217,-0.371587 -1.63086,-0.775391 -0.521639,-0.403802 -1.132957,-1.11784 -1.785156,-2.65039 -0.65475,-1.538546 -0.780777,-2.511998 -0.732422,-3.203125 0.04838,-0.691127 0.263473,-1.140143 0.501953,-1.75 0.238451,-0.60986 0.470703,-1.489345 0.15625,-2.435547 C 53.564412,10.237391 52.856617,9.3008615 51.53125,8.0019531 50.205891,6.7030421 49.249237,6.0095363 48.296875,5.7128906 47.344513,5.4162431 46.476382,5.6582865 45.869141,5.90625 c -0.607242,0.2479597 -1.055962,0.4789113 -1.75,0.5390625 -0.694046,0.060147 -1.677487,-0.045241 -3.232422,-0.671875 C 39.354619,5.1559991 38.575969,4.5544069 38.117188,4.0371094 37.658398,3.5198113 37.494581,3.05692 37.240234,2.4726562 36.98591,1.8883929 36.568414,1.1220126 35.71875,0.65625 34.869086,0.19048784 33.756612,0.00791506 31.998047,0 Z m -0.0078,2 c 1.598572,0.00723 2.414815,0.2118051 2.769532,0.40625 0.354708,0.194445 0.421536,0.3555236 0.642578,0.8632812 0.221027,0.5077583 0.513241,1.3043701 1.216797,2.0976563 0.703551,0.7932854 1.78834,1.5593547 3.521484,2.2578125 1.758973,0.7088621 3.083261,0.9048153 4.148437,0.8125 1.065183,-0.092319 1.825768,-0.4729613 2.332032,-0.6796875 0.50626,-0.206725 0.653725,-0.2650053 1.078125,-0.1328125 0.424392,0.1321928 1.206069,0.6015859 2.429687,1.8007812 1.223619,1.1991928 1.712397,1.9737868 1.851563,2.3925778 0.139162,0.418794 0.08143,0.562494 -0.117188,1.070313 -0.198576,0.507817 -0.560248,1.274825 -0.634765,2.339844 -0.07453,1.065016 0.13765,2.385103 0.878906,4.126953 0.743826,1.747846 1.566254,2.797023 2.40625,3.447265 0.840004,0.650245 1.651285,0.867397 2.132812,1.054688 0.481527,0.187291 0.601981,0.219594 0.820313,0.6875 0.218343,0.467904 0.427734,1.510468 0.427734,3.455078 0,1.933603 -0.210404,2.975982 -0.427734,3.447266 -0.189468,0.410887 -0.315969,0.487742 -0.654297,0.623046 -0.213506,0.0452 -0.425469,0.109946 -0.630859,0.19336 C 54.523207,32.937228 53.085289,34.840431 53,37.675781 v 4.302735 c 0,0.167584 -0.08655,0.375458 -0.398438,0.753906 -0.311924,0.378455 -0.816022,0.856908 -1.351562,1.460937 -0.662729,0.747496 -1.36414,1.726267 -1.804688,3.017579 -0.924495,0.814321 -1.521024,1.113718 -1.849609,1.189453 -0.360794,0.08315 -0.542781,0.01739 -1.0625,-0.199219 -0.519715,-0.216756 -1.28153,-0.574733 -2.332031,-0.648438 -1.050512,-0.0737 -2.353145,0.130319 -4.060547,0.81836 -1.733136,0.698456 -2.817929,1.466473 -3.521484,2.259765 -0.703556,0.793301 -0.995755,1.587928 -1.216797,2.095703 -0.221027,0.507778 -0.287847,0.668814 -0.642578,0.863282 -0.352895,0.193474 -1.171878,0.396933 -2.753907,0.40625 -1.598564,-0.0072 -2.410891,-0.211767 -2.765625,-0.40625 -0.354731,-0.194495 -0.421532,-0.3555 -0.642578,-0.863282 -0.221042,-0.507768 -0.523007,-1.302418 -1.226562,-2.095703 -0.703556,-0.793277 -1.780535,-1.561309 -3.513672,-2.259765 -1.707401,-0.688075 -3.008089,-0.892057 -4.058594,-0.81836 -1.050505,0.0737 -1.814264,0.431701 -2.333984,0.648438 -0.519721,0.216756 -0.701705,0.282368 -1.0625,0.199219 -0.329295,-0.07589 -0.925569,-0.37697 -1.853516,-1.195313 -0.442826,-1.288429 -1.146861,-2.265349 -1.808594,-3.011719 -0.535539,-0.604029 -1.029887,-1.082482 -1.341796,-1.460937 -0.311915,-0.378456 -0.400391,-0.58633 -0.400391,-0.753906 V 37.689453 H 11 v -0.002 -0.002 -0.002 -0.002 -0.002 -0.002 -0.002 -0.002 -0.002 -0.002 -0.002 -0.002 -0.002 -0.002 l -0.002,-0.002 C 10.912853,34.840853 9.4767835,32.937228 7.8183594,32.263672 7.6122493,32.179961 7.3997924,32.113577 7.1855469,32.068359 6.8483514,31.933426 6.7223836,31.857557 6.5332031,31.447266 6.3158984,30.975982 6.1054682,29.933603 6.1054688,28 c 0,-1.94461 0.2094046,-2.987174 0.4277343,-3.455078 0.2183282,-0.467904 0.3368317,-0.500209 0.8183594,-0.6875 0.4815273,-0.187292 1.294766,-0.404443 2.1347656,-1.054688 0.8399999,-0.650242 1.6624259,-1.699419 2.4062499,-3.447265 0.741265,-1.74185 0.953428,-3.061937 0.878906,-4.126953 -0.07452,-1.065019 -0.436207,-1.832027 -0.634765,-2.339844 -0.198559,-0.507819 -0.266124,-0.651519 -0.126953,-1.070313 0.139169,-0.418792 0.629897,-1.193385 1.853515,-2.3925778 C 15.086901,8.2265859 15.86662,7.757192 16.291016,7.625 16.715409,7.4928072 16.862877,7.5510875 17.369141,7.7578125 17.875403,7.9645375 18.637947,8.3451835 19.703125,8.4375 20.768304,8.529815 22.098446,8.3338617 23.857422,7.625 25.590563,6.9265422 26.667538,6.1604729 27.371094,5.3671875 28.074648,4.5739017 28.376616,3.7772894 28.597656,3.2695312 28.818698,2.7617735 28.88552,2.6006951 29.240234,2.40625 29.593099,2.2128202 30.408202,2.0092732 31.990234,2 Z m -4.720703,7.0019531 c -0.494714,0.023449 -1.011823,0.1492362 -1.521484,0.4101563 -0.918951,0.4704574 -1.726563,1.5384366 -1.726563,2.9453126 0,0.541779 0.06767,1.051261 0.177735,1.533203 -4.336108,2.238569 -7.514452,6.249269 -8.697266,11.015625 -1.245331,5.018281 -0.1392,10.327876 3,14.427734 1.626314,5.135241 6.574764,8.660157 13.496094,8.660157 6.908488,0 11.916304,-3.584423 13.480469,-8.63086 3.155573,-4.103137 4.264807,-9.427877 3.017578,-14.457031 -1.178332,-4.751339 -4.341035,-8.747441 -8.65625,-10.990234 0.106771,-0.46248 0.17558,-0.951171 0.183594,-1.513672 C 40.024409,10.950552 39.321154,9.9478071 38.294922,9.4121094 37.376045,8.9639353 36.389667,8.9171611 35.673828,9.109375 34.049931,9.4720505 33.107272,10.600389 32.019531,11.513672 31.816745,11.348723 31.620618,11.1785 31.423828,11.005859 30.566576,10.253806 29.688017,9.4135773 28.369141,9.1171875 28.173363,9.0666265 27.967501,9.0297898 27.755859,9.0117188 27.597128,8.9981652 27.434436,8.9941369 27.269531,9.0019531 Z M 36.556641,11 c 0.389295,0.0018 0.688576,0.128935 0.830078,0.199219 0.288907,0.155274 0.634762,0.402271 0.634765,1.158203 -0.0057,0.235166 -0.03364,0.499513 -0.464843,0.693359 -0.426172,0.191585 -1.438213,0.28996 -3.123047,-0.154297 -0.223559,-0.07541 -0.432679,-0.159699 -0.632813,-0.25 0.837064,-0.776247 1.616034,-1.442062 2.339844,-1.599609 C 36.2878,11.01301 36.426886,10.99938 36.556641,11 Z m -9.205079,0.0078 c 0.226079,-0.01576 0.429285,0.0074 0.550782,0.03906 0.690964,0.150346 1.321136,0.68595 2.208984,1.464844 0.887848,0.778892 2.026968,1.741351 3.744141,2.310547 1.332302,0.358314 2.455231,0.468607 3.345703,0.367187 -0.269367,0.574996 -0.585389,1.173039 -0.820313,1.822266 -2.962477,-0.02959 -6.111551,-0.03099 -8.699218,0.0059 -0.63807,-1.572202 -1.660157,-3.165712 -1.660157,-4.660156 0,-0.755937 0.40311,-1.036231 0.642578,-1.158203 0.213425,-0.120987 0.461425,-0.175644 0.6875,-0.191407 z m 0.621094,7.994141 H 36 c 0.579666,0 0.996094,0.421348 0.996094,1 0,0.578653 -0.416432,1 -0.996094,1 h -8 c -0.579665,0 -0.996094,-0.421348 -0.996094,-1 0,-0.561607 0.389955,-0.974758 0.96875,-1 z m 8.65625,3.931641 c 0.911123,2.271581 2.658058,4.073711 4.16211,5.914062 1.758175,2.151307 3.210937,4.265834 3.210937,7.107422 0,5.381998 -4.422349,10.039063 -12.003906,10.039063 -7.581558,0 -12.021192,-4.636618 -12,-10.03125 0.01104,-2.804572 1.466583,-4.921658 3.232422,-7.078125 1.511863,-1.846314 3.260452,-3.66391 4.175781,-5.941407 0.19194,0.03882 0.391317,0.05859 0.59375,0.05859 h 8 c 0.215622,0 0.425326,-0.02445 0.628906,-0.06836 z m -4.630859,3.064453 c -0.55609,-0.0022 -1.005215,0.449774 -1.001953,1.005859 V 28 H 30 c -1.644659,0 -2.996093,1.351452 -2.996094,2.996094 v 1.998047 C 27.003906,34.6388 28.355364,36 30,36 h 0.996094 v 4 H 30 C 29.428693,40 29.003906,39.5674 29.003906,38.996094 29.001706,38.443822 28.552269,37.997838 28,38 c -0.549221,0.0021 -0.993952,0.446872 -0.996094,0.996094 0,1.644638 1.351458,3.005859 2.996094,3.005859 h 0.996094 v 0.996094 c -0.0022,0.555322 0.44663,1.006076 1.001953,1.003906 0.552269,-0.0022 0.998255,-0.451638 0.996094,-1.003906 V 42.001953 H 34 c 1.644639,0 2.996094,-1.361198 2.996094,-3.005859 v -2 C 36.996094,35.351455 35.644658,34 34,34 H 32.994141 V 30 H 34 c 0.571287,0 0.996094,0.424842 0.996094,0.996094 -0.0022,0.555323 0.448584,1.004126 1.003906,1.001953 0.552268,-0.0022 0.998256,-0.449685 0.996094,-1.001953 C 36.996094,29.351477 35.644658,28 34,28 h -1.005859 v -0.996094 c 0.0032,-0.553031 -0.443058,-1.003708 -0.996094,-1.005859 z M 30,30 h 0.996094 v 4 H 30 c -0.571307,0 -0.996094,-0.434578 -0.996094,-1.005859 V 30.996094 C 29.003906,30.424867 29.428716,30 30,30 Z M 4.2636719,30.662109 c 0.1026444,0.728464 0.3019614,1.395272 0.6152343,1.927735 -0.571466,0.497788 -0.8769531,1.262198 -0.8769531,2.095703 v 7.300781 c 0.00214,0.549222 0.4468725,0.993951 0.9960938,0.996094 0.5522698,0.0022 1.001753,-0.443822 1.0039062,-0.996094 v -7.300781 c 0,-0.480605 0.1086066,-0.549258 0.2363281,-0.619141 0.1277256,-0.06988 0.4243171,-0.112436 0.8261719,0.05078 0.8037094,0.326422 1.8677045,1.422444 1.9335938,3.601562 v 4.259766 c 0,0.832354 0.4211296,1.501878 0.8574219,2.03125 0.4362922,0.529368 0.9315232,0.989497 1.3945312,1.511718 0.926015,1.04445 1.744936,2.230534 1.75,4.458985 0.0022,0.552264 0.451637,0.998257 1.003906,0.996093 0.544703,-0.0021 0.987586,-0.439737 0.996094,-0.984374 0.324862,0.167168 0.638531,0.284892 0.953125,0.357421 0.917725,0.211503 1.705758,-0.06353 2.279297,-0.302734 0.213003,-0.08886 0.409231,-0.17262 0.605469,-0.246094 -0.197976,1.071058 -0.546004,1.727692 -0.914063,2.357422 -0.317488,0.543201 -0.70491,1.119384 -0.908203,1.837891 H 4.9746094 v -0.988282 c 0,-0.7481 -0.2185093,-1.522968 -0.5078125,-2.443359 C 4.1774929,49.644063 3.8020784,48.613702 3.4316406,47.566406 2.6907648,45.471807 2,43.237767 2,42.169922 V 34 c 0,-1.063806 0.5730858,-2.518841 2.2636719,-3.337891 z m 55.4726561,0.0039 C 61.429046,31.475135 61.998047,32.93791 61.998047,34 v 8.169922 c 0,1.067845 -0.69077,3.301897 -1.431641,5.396484 -0.370431,1.047296 -0.743899,2.077657 -1.033203,2.998047 -0.289323,0.920391 -0.509771,1.695259 -0.509765,2.443359 v 0.988282 H 46.984375 c -0.203301,-0.71856 -0.5907,-1.294663 -0.908203,-1.837891 -0.367862,-0.629367 -0.71798,-1.28746 -0.916016,-2.357422 0.1968,0.07362 0.391861,0.157011 0.605469,0.246094 0.573536,0.239169 1.363535,0.514214 2.28125,0.302734 0.315099,-0.0726 0.629676,-0.189837 0.955078,-0.357421 0.0087,0.543881 0.450206,0.981253 0.994141,0.984374 0.552272,0.0022 1.001752,-0.443825 1.003906,-0.996093 0.0049,-2.228451 0.823989,-3.414535 1.75,-4.458985 0.463015,-0.522221 0.958241,-0.98235 1.394531,-1.511718 C 54.580825,43.480394 55,42.81087 55,41.978516 V 37.71875 c 0.06588,-2.179118 1.129885,-3.275144 1.933594,-3.601562 0.40185,-0.16321 0.700399,-0.120669 0.828125,-0.05078 0.08201,0.05681 0.236328,0.138531 0.236328,0.619141 v 7.300781 c 0.0022,0.552272 0.451638,0.998256 1.003906,0.996094 0.549222,-0.0021 0.993951,-0.446872 0.996094,-0.996094 v -7.300781 c 0,-0.833408 -0.310451,-1.618092 -0.876953,-2.095703 0.351647,-0.586224 0.50116,-1.256508 0.615234,-1.923828 z M 32.994141,36 H 34 c 0.571287,0 0.996094,0.424866 0.996094,0.996094 v 2 C 34.996094,39.567381 34.57131,40 34,40 h -1.005859 z" id="path846" style="opacity:1;fill:#000000;fill-opacity:1;stroke:none;stroke-width:2;stroke-linecap:round;stroke-linejoin:round;stroke-miterlimit:4;stroke-dasharray:none;stroke-dashoffset:0;stroke-opacity:1" transform="scale(0.26458334)"></path></g></svg>