<svg height="64" id="svg8" version="1.1" viewBox="0 0 16.933333 16.933334" width="64" xmlns="http://www.w3.org/2000/svg"><defs id="defs2"></defs><g id="layer1"><path d="M 7.2822421,6.9609094e-4 C 7.0896707,-0.00660675 6.9072619,0.0444113 6.7871818,0.11334952 6.5272883,0.24735232 6.3492184,0.51999376 6.3494825,0.89933976 6.3535835,1.3010987 6.4994097,1.6353359 6.629052,1.9240726 6.6796914,2.0368571 6.7268291,2.143003 6.7665113,2.2418793 6.4624376,2.3540101 6.1606327,2.5243726 5.8787102,2.6857753 5.6452808,2.8194157 5.4323468,2.950713 5.2658279,3.0449224 5.1829704,3.0921932 5.079635,3.1412628 5.0270827,3.1648108 5.0227832,3.0220973 4.9053313,2.9074284 4.7614659,2.9079814 H 3.9687495 C 3.9682465,2.7625621 3.8506033,2.6449491 3.7051997,2.6444344 H 0.26354977 C 0.11814528,2.6449501 5.1499023e-4,2.7625621 0,2.9079814 v 4.4989029 c -5.6198022e-4,0.1461813 0.11738332,0.265097 0.26354977,0.265614 H 3.7051997 C 3.8513663,7.6719691 3.9693104,7.5530656 3.9687495,7.4068843 H 4.7614659 C 4.9076323,7.4074399 5.0270824,7.2895187 5.0275994,7.1433372 H 5.2911493 C 5.5452982,7.1424641 5.83652,7.3574527 6.0166862,7.4843979 5.9669683,7.5578883 5.9178934,7.6310025 5.8673413,7.7055708 5.2035701,8.6846593 4.4979161,9.770424 4.4979161,11.243302 c 0,0.528156 0.1110226,1.004252 0.3317626,1.408685 -0.0063,0.015 -0.012271,0.03036 -0.017571,0.04599 -0.7605034,-0.0038 -1.3640359,-10e-5 -2.0417356,0 0.2518222,-0.280816 0.4056599,-0.65114 0.4056599,-1.056255 0,-0.873673 -0.7144406,-1.588001 -1.5880165,-1.588 C 0.71444164,10.053725 0,10.76805 0,11.641723 0,12.081158 0.18050804,12.479517 0.471289,12.767224 0.19457298,12.89208 0,13.172315 0,13.49327 v 0.792708 C 0,14.48855 0.07784353,14.675004 0.20463865,14.816173 0.07787858,14.956934 0,15.142763 0,15.345334 v 0.792708 c 0,0.435193 0.35782079,0.794948 0.79271638,0.795292 1.38148112,5.7e-5 3.16260022,1e-6 4.23488302,0 0.4348956,-3.44e-4 0.7927165,-0.360099 0.7927165,-0.795292 v -0.792708 c 0,-0.202571 -0.077884,-0.3884 -0.2046388,-0.529161 0.090328,-0.100572 0.1559195,-0.224273 0.1860351,-0.360181 0.27681,0.262751 0.6205587,0.584668 0.9854696,0.912596 0.419074,0.376601 0.857233,0.754565 1.2345497,1.04282 0.4204972,0.308729 0.7295829,0.519255 0.9741007,0.521926 0.4556445,0 1.2319538,-0.136835 1.9606038,-0.269748 0.364329,-0.06645 0.710882,-0.132086 0.982369,-0.181383 0.165429,-0.03367 0.342797,-0.05759 0.496093,-0.07855 l 0.26355,0.001 c 5.29e-4,0.147213 0.119971,0.265128 0.266134,0.26458 h 0.792716 c 5.55e-4,0.145996 0.119379,0.264628 0.265617,0.264066 h 2.644283 c 0.146929,5.56e-4 0.266698,-0.119186 0.266133,-0.266131 v -4.232772 c 5.56e-4,-0.146946 -0.119204,-0.26618 -0.266133,-0.265614 h -2.644283 c -0.14693,-5.55e-4 -0.266182,0.118668 -0.265617,0.265614 h -0.792716 c -0.146164,-5.55e-4 -0.265617,0.117365 -0.266134,0.263547 v 0.156578 c -0.222997,-0.061 -0.410175,-0.127624 -0.59893,-0.195851 0.22319,-0.405872 0.33538,-0.884314 0.33538,-1.415403 0,-1.4522145 -0.68348,-2.5260911 -1.340486,-3.4958737 0.17199,-0.1459231 0.282153,-0.3629545 0.282153,-0.6040911 0,-0.2024623 -0.07749,-0.389007 -0.204122,-0.5301945 0.126489,-0.1407019 0.204122,-0.3263173 0.204122,-0.5286444 0,-0.2024303 -0.07752,-0.3884982 -0.204122,-0.5296778 0.126606,-0.1407278 0.204122,-0.3262141 0.204122,-0.5286444 0,-0.3728688 -0.262928,-0.6902919 -0.611849,-0.773588 0.215571,-0.4415259 -0.0235,-0.8288128 -0.290421,-1.0257665 -0.0034,-0.00273 -0.158198,-0.1249532 -0.381889,-0.2862844 0.02605,-0.2631214 0.123654,-0.5893212 0.229443,-0.9172469 0.123665,-0.3833353 0.261483,-0.7645277 0.261483,-1.13480247 0,-0.37155834 -0.181417,-0.636577 -0.456819,-0.77927238 C 9.8934422,-0.01154072 9.6067122,-0.01720671 9.4330148,0.02911783 9.0837035,0.1069642 8.8513348,0.33292423 8.6242787,0.53140745 8.5673946,0.58113311 8.5111151,0.62991978 8.4521961,0.67713346 8.1590658,0.43846705 7.927879,0.15006454 7.4765451,0.02911783 7.4121583,0.01231451 7.3464318,0.00313043 7.2822421,6.9609094e-4 Z M 9.6417875,0.52985716 c 0.091957,-0.00334 0.1828696,0.0202737 0.2444294,0.0521927 0.06936,0.0353787 0.1679461,0.10774727 0.1679481,0.306438 0,0.22245964 -0.111513,0.58667244 -0.2361608,0.97305694 C 9.7401997,2.1027226 9.6572566,2.3541015 9.6061309,2.6082613 9.4371405,2.4997764 9.2609227,2.3945971 9.0893666,2.3085412 8.8761061,2.2015656 8.6824817,2.1152734 8.4630482,2.1152734 8.0782163,2.1160486 7.6696449,2.1117301 7.2920605,2.1188907 7.2209931,1.9415376 7.1480126,1.7886806 7.07812,1.6326206 7.3198536,1.6660083 7.6134302,1.635899 7.9814241,1.5370202 8.4356263,1.3867395 8.7371475,1.1331139 8.972061,0.92776153 9.2069752,0.72240946 9.3731724,0.58144658 9.5503202,0.54277615 c 0.029737,-0.007843 0.060815,-0.0118058 0.091467,-0.012919 z M 14.283364,2.1173404 c -0.15114,0.00423 -0.259956,0.1203943 -0.260449,0.263547 v 0.263547 c -5.82e-4,0.1461873 0.117378,0.2651112 0.26355,0.2656141 0.146935,5.821e-4 0.266196,-0.118663 0.265617,-0.2656141 V 2.3808874 C 14.551579,2.2346996 14.432896,2.1167641 14.283364,2.1173404 Z m -6.9086212,0.527094 h 1.0883054 c 0.3529396,0.020531 1.2292252,0.652895 1.6898188,1.0019955 0.161147,0.1209678 0.192381,0.2538187 0.145728,0.3560468 -0.04665,0.1022287 -0.195559,0.2284074 -0.5136637,0.2284074 -0.2064652,0 -0.4461383,-0.072548 -0.6821289,-0.1581282 C 8.8667714,3.9871713 8.6486973,3.8822156 8.3927683,3.8789713 8.2969664,3.8778865 8.2079389,3.9292048 8.1602244,4.012295 8.0015025,4.2872429 7.8773661,4.382136 7.7364776,4.4360374 7.5955891,4.4899375 7.4052254,4.4964983 7.1406484,4.4964983 6.9944765,4.4959163 6.8755339,4.6138573 6.8750317,4.7600452 6.8744761,4.90405 6.988998,5.0215539 7.1318635,5.0256594 7.0650136,5.7535853 6.7301181,6.391 6.3102083,7.0425693 5.987636,6.8296897 5.7144542,6.6195849 5.2911493,6.6136594 H 5.0275994 V 3.7032734 C 5.144572,3.7024532 5.204117,3.6685711 5.2792637,3.6345444 5.3553414,3.6000979 5.4354371,3.5566799 5.5252433,3.5058715 5.7048557,3.4042548 5.9176926,3.273519 6.1427768,3.1446571 6.5929446,2.8869329 7.1135601,2.6502254 7.3747428,2.6444344 Z M 15.33808,2.9064312 c -0.146794,0.00757 -0.256873,0.1239949 -0.256315,0.265614 v 0.2635471 c 5.03e-4,0.1454254 0.11814,0.263047 0.26355,0.2635471 0.146172,5.82e-4 0.265115,-0.1173595 0.265616,-0.2635471 V 3.1720452 C 15.611514,3.025094 15.491991,2.9058515 15.33808,2.9064312 Z m -2.113049,0.00362 c -0.145623,0.00408 -0.259957,0.1209112 -0.260449,0.2640644 v 0.265614 c 5.02e-4,0.1454256 0.11814,0.263047 0.26355,0.263547 0.14617,5.821e-4 0.265113,-0.1173592 0.265616,-0.263547 V 3.1741124 C 13.493246,3.0279245 13.374562,2.9094723 13.225031,2.9100485 Z M 3.9687495,3.4376594 H 4.4979161 V 6.8772065 H 3.9687495 Z M 14.286465,3.9652701 c -0.873576,0 -1.588017,0.7143299 -1.588017,1.588 0,0.8736703 0.714441,1.5879999 1.588017,1.5879999 0.873575,0 1.588016,-0.7143296 1.588016,-1.5879999 0,-0.8736701 -0.714441,-1.588 -1.588016,-1.588 z m -4.234367,0.7947751 h 0.531234 c 0.151153,0 0.26355,0.1149639 0.26355,0.2661309 0,0.1511671 -0.112397,0.2635461 -0.26355,0.2635471 h -0.531234 c -0.1511528,0 -0.2635494,-0.11238 -0.2635494,-0.2635471 0,-0.151167 0.1123966,-0.2661309 0.2635494,-0.2661309 z m 0,1.0588391 h 0.531234 c 0.151153,0 0.26355,0.1144467 0.26355,0.265614 0,0.151167 -0.112397,0.263546 -0.26355,0.2635471 h -0.531234 c -0.1511528,0 -0.2635494,-0.1123803 -0.2635494,-0.2635471 0,-0.1511673 0.1123966,-0.265614 0.2635494,-0.265614 z m 0,1.0583222 h 0.531234 c 0.151153,0 0.26355,0.1149634 0.26355,0.2661307 0,0.151167 -0.112397,0.2635471 -0.26355,0.2635471 h -0.531234 c -0.1511528,0 -0.2635494,-0.1123806 -0.2635494,-0.2635471 0,-0.151167 0.1123966,-0.2661318 0.2635494,-0.2661307 z M 8.4599476,7.6745652 c 0.15289,5.027e-4 0.2703332,0.1194263 0.2697511,0.2656142 v 0.2635468 h 0.2661335 c 0.4351488,0 0.7927164,0.3595909 0.7927164,0.7947754 C 9.7880459,9.143927 9.6704085,9.2620627 9.5249988,9.2625651 9.3788266,9.2631472 9.2598847,9.1446897 9.259382,8.9985016 9.259382,8.847342 9.1469844,8.7328873 8.9958322,8.7328873 H 8.7296987 v 1.0593559 h 0.2661335 c 0.4351488,0 0.7927164,0.3595848 0.7927164,0.7947748 v 0.529161 c 0,0.435197 -0.3575734,0.793225 -0.7927164,0.793225 H 8.7296987 v 0.263547 C 8.7302808,12.31914 8.6128378,12.438062 8.4666656,12.438565 8.3197301,12.439147 8.2004668,12.319903 8.2010488,12.172951 V 11.909404 H 7.937499 c -0.4351427,0 -0.7927164,-0.358033 -0.7927164,-0.793225 -5.821e-4,-0.146187 0.1173776,-0.265112 0.2635498,-0.265614 0.1469358,-5.82e-4 0.2661988,0.118664 0.2656168,0.265614 0,0.151175 0.1123915,0.263547 0.2635498,0.263547 H 8.2010488 V 10.321404 H 7.937499 c -0.4351427,0 -0.7927164,-0.3580283 -0.7927164,-0.7932246 V 8.9985016 c 2e-7,-0.4351913 0.3575676,-0.7947754 0.7927164,-0.7947754 H 8.2010488 V 7.9401794 C 8.2004932,7.7978203 8.3126493,7.681172 8.4599476,7.6745652 Z M 1.5807819,8.2037262 C 1.4332255,8.2103381 1.3218378,8.3269811 1.3223997,8.4693405 V 8.7328873 C 1.3218203,8.8798385 1.4410812,8.9990813 1.5880166,8.9985016 1.734188,8.9979989 1.8521433,8.879075 1.8515663,8.7328873 V 8.4693405 C 1.8521431,8.3231529 1.7339301,8.204229 1.5807819,8.2037262 Z M 7.937499,8.7328873 c -0.1511522,0 -0.2635498,0.1144613 -0.2635498,0.2656143 v 0.5296778 c 0,0.1511676 0.1123915,0.2640638 0.2635498,0.2640638 H 8.2010488 V 8.7328873 Z M 2.6396318,8.9948842 C 2.4930455,9.0014247 2.3812199,9.1173284 2.3807329,9.2589481 V 9.524562 C 2.3812357,9.6707499 2.5001774,9.7886854 2.6463497,9.7881091 2.7917592,9.7876064 2.9093995,9.6699877 2.9098996,9.524562 V 9.2589481 C 2.9093969,9.1135227 2.7917592,8.995384 2.6396318,8.9948842 Z m -2.11408256,0.00362 C 0.37916181,9.0015596 0.26404376,9.1186608 0.26354977,9.2625646 V 9.5281789 C 0.26405169,9.6743681 0.38299412,9.7928195 0.5291666,9.7922432 0.67457605,9.7917405 0.79221638,9.6736048 0.79271638,9.5281794 V 9.2625651 C 0.79221627,9.11714 0.67431763,8.9990001 0.52554924,8.9985016 Z M 8.7296987,10.321404 v 1.058322 h 0.2661335 c 0.1511583,0 0.2635498,-0.112382 0.2635498,-0.263547 v -0.529161 c 0,-0.151154 -0.1123976,-0.265614 -0.2635498,-0.265614 z m -3.0788815,2.376057 c 0.064968,0.0013 0.1349399,0.01086 0.2025716,0.02997 l 2.4287919,0.685739 c -0.080158,0.165665 -0.104521,0.359121 -0.053743,0.548798 0.1125947,0.420482 0.5516212,0.674993 0.9720338,0.562233 L 10.73371,14.112345 c 0.141394,-0.03763 0.225486,-0.183187 0.187586,-0.324525 -0.03763,-0.141408 -0.182688,-0.224973 -0.324011,-0.187067 L 9.0640454,14.01261 C 8.9181349,14.05174 8.778718,13.97143 8.7395176,13.825027 c -0.039179,-0.146355 0.041691,-0.284876 0.1963706,-0.327109 0,0 0.4014908,-0.137528 0.874365,-0.272332 0.4728738,-0.134804 1.0447608,-0.263547 1.3027618,-0.263547 0.241337,0 0.548982,0.09931 0.867131,0.214455 0.234623,0.0849 0.472415,0.179426 0.718302,0.22324 v 2.474758 h -0.26355 c -0.20396,0.01061 -0.405929,0.05368 -0.589628,0.08578 -0.275452,0.05001 -0.622831,0.118006 -0.984436,0.183966 C 10.137622,16.27616 9.333763,16.403651 8.9958327,16.403651 8.7833776,16.320142 8.5273443,16.126353 8.3416087,15.989732 7.9845602,15.716961 7.5539728,15.347285 7.1406484,14.975851 6.5968874,14.489681 6.0685969,13.981253 5.5448804,13.4757 5.3141376,13.276923 5.2506585,13.102338 5.3123366,12.872126 5.3552046,12.731482 5.5074488,12.69538 5.6508172,12.697461 Z m 7.5773148,0.266648 h 0.529166 v 3.175999 H 13.228132 Z M 0.79271638,13.227656 H 1.3223997 v 0.525027 c -5.794e-4,0.146951 0.1186815,0.266194 0.2656169,0.265614 0.1461714,-5.03e-4 0.2641267,-0.119426 0.2635497,-0.265614 v -0.525027 h 0.7947834 v 0.525027 c -5.768e-4,0.146188 0.1173774,0.265112 0.2635499,0.265614 0.1469355,5.82e-4 0.2667132,-0.118663 0.2661335,-0.265614 v -0.525027 h 0.7927164 v 0.525027 c -5.821e-4,0.146188 0.1173774,0.265112 0.2635498,0.265614 0.1469356,5.82e-4 0.266197,-0.118663 0.2656168,-0.265614 v -0.525027 h 0.2821532 c 0.075358,0.273859 0.1577269,0.410904 0.51108,0.738448 v 0.319874 c 0,0.151165 -0.1121445,0.266012 -0.2635499,0.266131 H 0.7937499 C 0.64214663,14.551156 0.5291666,14.436589 0.5291666,14.285978 V 13.49327 c 0,-0.151166 0.11239636,-0.265614 0.26354978,-0.265614 z m 0,1.854131 c 0.17279057,8e-6 0.34657532,-4e-6 0.52968332,0 v 0.529161 c 5.028e-4,0.146187 0.1194445,0.264123 0.2656169,0.263547 0.1454094,-5.03e-4 0.2630497,-0.118122 0.2635497,-0.263547 v -0.529161 h 0.7947834 v 0.529161 c 5.027e-4,0.145425 0.1181394,0.263047 0.2635499,0.263547 0.1461714,5.82e-4 0.2656315,-0.11736 0.2661335,-0.263547 v -0.529161 h 0.7927164 v 0.529161 c 5.027e-4,0.145425 0.1181394,0.263047 0.2635498,0.263547 0.1461715,5.82e-4 0.2651149,-0.11736 0.2656168,-0.263547 v -0.529161 h 0.5296833 c 0.1511533,0 0.2635499,0.11238 0.2635499,0.263547 v 0.792708 c 0,0.151164 -0.1121445,0.265493 -0.2635499,0.265614 -1.0718058,10e-7 -2.8516391,5.6e-5 -4.2338495,0 C 0.64214663,16.402704 0.5291666,16.28865 0.5291666,16.138042 v -0.792708 c 0,-0.151167 0.11239636,-0.263547 0.26354978,-0.263547 z" id="path866" style="opacity:1;fill:#000000;fill-opacity:1;stroke:none;stroke-width:0.5291667;stroke-linecap:round;stroke-linejoin:round;stroke-miterlimit:4;stroke-dasharray:none;stroke-dashoffset:0;stroke-opacity:1"></path></g></svg>