<svg xmlns="http://www.w3.org/2000/svg" version="1.1" xmlns:xlink="http://www.w3.org/1999/xlink" xmlns:svgjs="http://svgjs.com/svgjs" width="1980" height="560" preserveAspectRatio="none" viewBox="0 0 1980 560"><g mask="url(&quot;#SvgjsMask1036&quot;)" fill="none"><rect width="1980" height="560" x="0" y="0" fill="rgba(223, 181, 237, 1)"></rect><path d="M2079 560L0 560 L0 359.84Q25.76 286.6, 99 312.35Q210.71 259.06, 264 370.77Q329.9 271.67, 429 337.58Q463.22 272.8, 528 307.03Q600.21 214.24, 693 286.45Q764.58 259.02, 792 330.6Q860.31 233.91, 957 302.22Q1034.73 280.95, 1056 358.68Q1068.82 272.5, 1155 285.31Q1212.56 243.87, 1254 301.42Q1363.69 246.12, 1419 355.81Q1506.77 278.58, 1584 366.35Q1637.97 255.32, 1749 309.29Q1817.25 212.54, 1914 280.79Q2025.91 227.7, 2079 339.61z" fill="rgba(110, 37, 134, 1)"></path><path d="M2079 560L0 560 L0 388.43Q91.05 314.48, 165 405.52Q229.73 305.25, 330 369.97Q372.46 313.43, 429 355.89Q542.5 304.39, 594 417.9Q624.52 349.42, 693 379.95Q755.05 343, 792 405.05Q814.13 328.18, 891 350.31Q956.97 317.27, 990 383.24Q1060.42 354.66, 1089 425.08Q1123.95 361.03, 1188 395.98Q1262.65 305.63, 1353 380.28Q1433.51 361.79, 1452 442.31Q1528.61 353.91, 1617 430.52Q1643.34 357.86, 1716 384.19Q1770.52 339.71, 1815 394.23Q1877.15 291.38, 1980 353.53Q2043.43 317.96, 2079 381.39z" fill="rgba(177, 23, 132, 1)"></path><path d="M2013 560L0 560 L0 486.47Q54.32 375.79, 165 430.11Q284.88 384.99, 330 504.86Q385.32 461.18, 429 516.5Q435.6 424.1, 528 430.7Q615.93 353.63, 693 441.56Q771.73 421.29, 792 500.02Q849.64 458.66, 891 516.3Q933.23 393.53, 1056 435.76Q1156.56 371.32, 1221 471.88Q1312.22 398.1, 1386 489.32Q1414.43 418.75, 1485 447.19Q1549.52 412.71, 1584 477.22Q1639.87 434.09, 1683 489.96Q1740.71 382.67, 1848 440.38Q1961.59 388.97, 2013 502.56z" fill="rgba(105, 140, 185, 1)"></path><path d="M2046 560L0 560 L0 493.93Q76.07 471, 99 547.08Q168.46 451.54, 264 520.99Q345.04 503.03, 363 584.07Q401.83 523.9, 462 562.73Q488.59 490.32, 561 516.9Q601.61 458.5, 660 499.11Q736.69 476.8, 759 553.48Q847.38 476.87, 924 565.25Q937.77 480.02, 1023 493.79Q1083.22 455.01, 1122 515.23Q1229.16 457.39, 1287 564.56Q1301.96 480.52, 1386 495.49Q1479.37 423.86, 1551 517.22Q1655.98 457.2, 1716 562.18Q1791.37 472.55, 1881 547.92Q1949.11 451.03, 2046 519.14z" fill="white"></path></g><defs><mask id="SvgjsMask1036"><rect width="1980" height="560" fill="#ffffff"></rect></mask></defs></svg>