<svg xmlns="http://www.w3.org/2000/svg" version="1.1" xmlns:xlink="http://www.w3.org/1999/xlink" xmlns:svgjs="http://svgjs.com/svgjs" width="1422" height="980" preserveAspectRatio="none" viewBox="0 0 1422 980"><g mask="url(&quot;#SvgjsMask1026&quot;)" fill="none"><rect width="1422" height="980" x="0" y="0" fill="rgba(229, 231, 233, 1)"></rect><circle r="11.03" cx="919.91" cy="330.01" filter="url(#SvgjsFilter1027)" fill="rgba(110, 37, 134, 1)"></circle><circle r="8.635" cx="1253.365" cy="425.91499999999996" filter="url(#SvgjsFilter1027)" fill="rgba(110, 37, 134, 1)"></circle><circle r="16.195" cx="1034.105" cy="651.7950000000001" filter="url(#SvgjsFilter1027)" fill="rgba(110, 37, 134, 1)"></circle><circle r="14" cx="1422.79" cy="25.66" filter="url(#SvgjsFilter1027)" fill="rgba(110, 37, 134, 1)"></circle><circle r="13.275" cx="494.98499999999996" cy="822.275" filter="url(#SvgjsFilter1027)" fill="rgba(110, 37, 134, 1)"></circle><circle r="11.835" cx="989.2750000000001" cy="777.4250000000001" filter="url(#SvgjsFilter1027)" fill="rgba(110, 37, 134, 1)"></circle><circle r="10.005" cx="1332.875" cy="654.885" filter="url(#SvgjsFilter1027)" fill="rgba(110, 37, 134, 1)"></circle><circle r="12.77" cx="1350.93" cy="552.92" filter="url(#SvgjsFilter1027)" fill="rgba(110, 37, 134, 1)"></circle><circle r="14.145" cx="572.415" cy="656.425" filter="url(#SvgjsFilter1027)" fill="rgba(110, 37, 134, 1)"></circle><circle r="15.045" cx="54.725" cy="492.45500000000004" filter="url(#SvgjsFilter1027)" fill="rgba(110, 37, 134, 1)"></circle><circle r="12.76" cx="745.86" cy="696.64" filter="url(#SvgjsFilter1027)" fill="rgba(110, 37, 134, 1)"></circle><circle r="15.84" cx="387.02" cy="897.33" filter="url(#SvgjsFilter1027)" fill="rgba(110, 37, 134, 1)"></circle><circle r="15.98" cx="1029.6499999999999" cy="800.65" filter="url(#SvgjsFilter1027)" fill="rgba(110, 37, 134, 1)"></circle><circle r="10.37" cx="667.63" cy="793.54" filter="url(#SvgjsFilter1027)" fill="rgba(110, 37, 134, 1)"></circle><circle r="12.955" cx="851.5350000000001" cy="95.615" filter="url(#SvgjsFilter1027)" fill="rgba(110, 37, 134, 1)"></circle><circle r="10.365" cx="755.315" cy="422.285" filter="url(#SvgjsFilter1027)" fill="rgba(110, 37, 134, 1)"></circle><circle r="11.375" cx="729.165" cy="264.895" filter="url(#SvgjsFilter1027)" fill="rgba(110, 37, 134, 1)"></circle><circle r="10.735" cx="1281.655" cy="483.105" filter="url(#SvgjsFilter1027)" fill="rgba(110, 37, 134, 1)"></circle><circle r="12.41" cx="844.73" cy="535.42" filter="url(#SvgjsFilter1027)" fill="rgba(110, 37, 134, 1)"></circle><circle r="13.685" cx="563.265" cy="799.1949999999999" filter="url(#SvgjsFilter1027)" fill="rgba(110, 37, 134, 1)"></circle><path d="M378.2 980.2L386.1 972.4 388 978.7C388.2 979.4 389 980 390 979.9 390.8 979.4 391.3 978.6 390.9 977.8L388.7 969.8 394.5 963.5 399 980.3C399.5 981 400.3 981.6 401 981.4 402.1 981 402.6 980.2 402.2 979.4L397.1 960.9 406.4 951.5 408.8 966.4 418 954.5 421.6 967.1 408.3 981C408 980.9 407.9 981.2 407.8 981.5 407.7 982.1 407.8 982.8 408.4 983.3 408.9 983.8 409.9 983.7 410.7 983.2L422.7 970.6 424.8 979 419 985C418.6 985.3 418.6 985.6 418.5 985.9 418.4 986.2 418.5 986.9 419.1 987.3 419.6 987.8 420.6 987.7 421.1 987.2L425.9 982.5 429 993.1C429.1 994.1 430 994.4 431 994.3 431.7 994.1 432.2 993.3 431.9 992.2L429 981.7 435.4 983.4C436.3 983.6 437.2 982.8 437.4 982.2 437.6 981.3 437.1 980.5 436.2 980.3L427.9 978.2 425.8 969.8 442.4 974C443.3 974.3 444.1 973.8 444.3 972.9 444.5 972.3 444.1 971.2 443.2 971L424.8 966.3 421.2 953.6 435.2 958.8 429.6 945 442.4 948.3 447.5 966.6C447.9 967.6 448.8 967.9 449.5 967.7 450.2 967.6 450.8 966.7 450.7 965.7L445.8 949.2 454.1 951.3 456.6 959.4C456.6 960.4 457.5 960.9 458.5 960.6 459.2 960.4 459.8 959.6 459.4 958.5L457.7 952.2 468.5 954.9C469.4 955.2 470.1 954.7 470.4 953.8S470.2 952.1 469.2 951.9L458.5 949.1 463 944.4C463.8 943.6 463.8 942.7 463.2 942.2 462.5 941.3 461.5 941.4 460.9 942.3L454.8 948.2 446.6 946.1 458.8 933.9C459.4 933 459.3 932.1 458.8 931.6 458 930.7 457 930.8 456.5 931.7L443.2 945.2 430.4 941.9 441.9 932.5 427.1 930.4 436.4 921 454.7 925.7C455.6 925.9 456.5 925.1 456.7 924.5 456.9 923.6 456.4 922.8 455.5 922.6L438.7 918.3 444.8 912.1 453.1 914.2C454 914.4 454.8 913.9 455 913 455.2 912.4 454.8 911.3 453.9 911.1L447.5 909.5 455 901.6C455.9 900.8 455.8 899.8 454.9 899.3 454.4 898.8 453.5 898.6 452.9 899.4L445.1 907.2 443.1 900.9C443 900.2 442.1 899.6 441.5 899.8 440.8 899.9 440.3 900.5 440.2 900.8 440.1 901.1 440.1 901.4 440.3 901.8L442.5 909.8 436.6 916.1 432.1 899.3C431.6 898.6 430.8 898 430.1 898.2 429.4 898.3 429 898.9 428.8 899.5 428.7 899.8 428.7 899.8 429 900.2L434 918.7 424.8 928.1 422.4 913.2 413.1 925.1 409.5 912.5 422.8 898.6C423.3 898.1 423.5 897.1 422.8 896.3 422.2 895.8 421.2 895.9 420.5 896.4L408.4 909 406.3 900.6 412.1 894.6C412.9 894.1 412.8 893.1 412.1 892.3 411.5 891.8 410.5 891.9 409.8 892.3L405.3 897.1 402.1 886.5C402.1 885.5 401.1 885.2 400.1 885.3 399.8 885.5 399.3 886.1 399.2 886.4 399.1 886.7 399.1 887 399.3 887.4L402.1 897.9 395.7 896.2C394.8 896 393.9 896.8 393.8 897.4L393.8 897.4C393.6 898.3 394 899.1 394.9 899.3L403.2 901.4 405.3 909.8 388.8 905.6C387.9 905.3 387.1 905.8 386.8 906.7S387.1 908.4 388 908.6L406.4 913.3 410 926 396 920.8 401.6 934.6 388.7 931.3 383.6 913C383.2 912 382.3 911.7 381.6 911.9 380.9 912 380.4 912.9 380.4 913.9L385 930.4 377.1 928.3 374.6 920.2C374.5 919.2 373.7 918.7 372.6 919 371.9 919.2 371.4 920 371.4 921L373.4 927.4 362.7 924.7C361.8 924.4 361 924.9 360.8 925.8S361 927.5 361.9 927.7L372.6 930.5 368.2 935.2C367.8 935.4 367.7 935.7 367.6 936 367.5 936.6 367.7 937 367.9 937.4 368.7 938.3 369.7 938.2 370.2 937.3L376.3 931.4 384.6 933.5 372.3 945.7C372.2 946 372.2 946.3 372.1 946.6 371.9 947.2 372.2 947.6 372.4 948 373.1 948.9 374.1 948.8 374.7 947.9L387.9 934.4 400.8 937.7 389.2 947.1 404 949.2 394.8 958.6 376.4 953.9C375.5 953.7 374.6 954.5 374.5 955.1 374.3 956 374.7 956.8 375.6 957L392.2 961.2 386.3 967.5 378 965.4C377.1 965.2 376.4 965.7 376.1 966.6S376.3 968.3 377.3 968.5L383.7 970.1 376.1 978C375.8 978.2 375.7 978.5 375.6 978.8 375.5 979.1 375.7 979.8 376.2 980.3 376.7 980.8 377.7 981 378.2 980.2ZM396.6 945.1L406.1 937.4 401.5 926.1 413.1 930.4 420.4 920.8 422.6 932.8 434.5 934.5 425.1 942.2 429.7 953.5 418.4 949.3 410.7 958.8 408.9 946.9 396.6 945.1Z" fill="rgba(110, 37, 134, 1)"></path><path d="M734.4 592.2L730.2 611.6 720 603C719 602 717 602 715.4 603.2 714.6 604.8 714.7 606.8 715.7 607.8L728.9 619.4 724.9 637.4 698.3 613.6C696.5 612.2 694.5 612.2 693.7 613.8 692.1 615 692.1 617 693.9 618.4L723.3 644.6 720.1 660.9 683.5 673.2 672.3 663.6 681.3 622.6C681.1 622 680.9 621.4 680.7 620.8 680.5 620.2 679.5 619.2 678.7 618.8 676.5 618.2 674.9 619.4 674.9 621.4L666.7 658.8 653.3 646.6 656.9 627.4C657.5 627.2 657.3 626.6 657.1 626 656.7 624.8 655.7 623.8 654.3 623.6 652.9 623.4 651.3 624.6 650.5 626.2L647.7 641.8 630.7 626.8C629.7 625.8 627.7 625.8 626.1 627 625.3 628.6 625.3 630.6 626.3 631.6L642.3 645.6 629.7 649.8C627.9 650.4 627.3 652.6 627.8 653.8 628.4 655.6 630.2 657 631.9 656.4L648.1 651 661.5 663.2 628 674.4C626.2 675 625.4 676.6 626 678.4 626.6 680.2 628.2 681 630 680.4L667.1 668 679.1 678 671.2 715.9 657.4 720.5 627.2 694C626 692.4 623.4 692.6 622.6 694.2 621 695.4 621.6 697.2 622.8 698.8L650.2 723 632.8 728.8 619.4 716.6C618.4 715.6 615.8 715.8 614.8 716.8S614 720.4 615.2 722L625.6 731.2 604.6 738.2C602.8 738.8 602.2 741 602.8 742.8 603.2 744 605 745.4 606.8 744.8L627.8 737.8 625.2 752C625 753.4 625.6 755.1 627.8 755.7 629.2 755.9 631.4 754.5 631.6 753.1L635 735.4 652.4 729.5 645 765.3C645 767.3 645.6 769.1 647.8 769.7 649.2 769.9 651.4 768.5 651.6 767.1L659.6 727.1 673.4 722.5 702.6 748.1 699 763.3 661.8 775.7C660 776.3 659.2 777.9 659.8 779.7 660.4 781.5 662.2 782.9 664 782.3L697.6 771.1 694.2 788.9 678 794.3C676.2 794.9 675.4 796.5 676 798.3 676.6 800.1 678.2 800.9 680 800.3L692.6 796.1 688.2 816.9C688 818.3 689.4 820.5 690.8 820.7 692.8 820.6 694.6 820 694.6 818L699.4 796.5 710.8 806.6C712.4 807.4 714.4 807.4 715.4 806.4 716.4 805.4 716.6 804 716.2 802.8 716.2 802.8 716 802.2 715.2 801.8L700.8 788.7 704.2 770.9 733.2 795.8C734.4 797.4 736.4 797.4 737.8 795.6 738.2 794.8 738.6 794 738.2 792.8 738 792.2 737.8 791.6 737.6 791L705.8 763.7 709 749.3 745.5 737.1 757.9 748.3 750.2 786.8C749.6 789 750.8 790.6 752.8 790.6 754.4 791.4 756 790.2 756.6 788L763.5 753 777.5 765 773.9 782.2C773.7 783.6 774.9 785.2 776.5 786 778.5 786 780.3 785.4 780.3 783.4L783.3 770.4 798.3 783.4C799.5 785 801.3 784.4 802.9 783.2 803.3 782.4 803.5 781 803.1 779.8 803.1 779.8 802.9 779.2 802.7 778.6L786.7 764.6 801.7 759.6C802.9 759.2 804.3 757.4 803.7 755.6 803.1 753.8 800.9 753.2 799.7 753.6L781.1 759.8 767.1 747.8 803.7 735.6C805.5 735 806.1 732.8 805.5 731S803.3 728.4 801.5 729L761.3 742.5 749.9 732.3 757.9 694.3 773.5 689.1 803.9 716.2C805.5 717 807.5 717 809.1 715.8 809.5 715 809.7 713.6 809.3 712.4 809.1 711.8 808.9 711.2 808.1 710.8L780.7 686.7 798 680.9 812 692.8C813 693.8 815 693.8 816.6 692.6 817.4 691 817.4 689 816.4 688L805.2 678.5 824.4 672.1C825.6 671.7 826.8 669.3 826.4 668.1 825.8 666.3 823.4 665.1 822.2 665.5L803 671.9 806.4 658.1C806.2 657.5 806 656.9 805.8 656.3 805.4 655.1 804.4 654.1 803.6 653.7 801.6 653.7 800 654.9 799.2 656.5L795.8 674.3 778.5 680.1 785.8 644.3C786.4 642.1 785.2 640.5 783.8 640.3 781.6 639.7 780 640.9 779.2 642.5L771.3 682.5 755.7 687.7 726.5 662.1 729.5 647.1 769.6 633.7C771.4 633.1 772.2 631.5 771.6 629.7 771 627.9 769.4 627.1 767.6 627.7L731.1 639.9 735 622 753.6 615.7C754.8 615.3 756 612.9 755.4 611.2 754.8 609.4 752.6 608.8 751.4 609.2L736.4 614.2 740.8 593.4C740.6 592.8 740.6 592.8 740.4 592.2 740 591 739 590 738.2 589.6 736.2 589.6 734.6 590.8 734.4 592.2ZM748.5 690.1L751.5 693.1 750.7 696.7 744.3 727.5 743.5 731.1 739.9 732.3 710.6 742.1 707 743.3 704.2 740.9 680.6 720.1 677.8 717.7 678.4 713.5 684.9 683.4 685.5 679.2 689.1 678 718.5 668.1 722.1 666.9 725.1 669.9 748.5 690.1Z" fill="rgba(110, 37, 134, 1)"></path><path d="M200 576.9L194.9 558.2 206.3 560.7C207.5 561.1 209 560.3 209.8 558.7 209.8 557.2 208.9 555.6 207.4 555.6L193.2 552 188.6 537.6 218.1 545.3C219.7 545.2 221.2 544.4 221.6 543.2 222 541.3 221.1 539.7 219.6 539.7L186.9 531.4 180.6 509.2 205.5 518.5 195.2 494.1 217.6 499.5 227.2 531.8C226.9 532.2 227.3 532.6 227.7 532.9 228.5 533.7 229.6 534.1 230.8 533.7 232 533.2 232.7 531.7 232.7 530.1L223.9 500.9 238.4 505 242.6 518.9C242.6 519.7 243 520.1 243.4 520.5 243.8 520.9 245 521.2 246.2 520.8 247.3 520.4 248.1 518.8 247.7 517.7L244.7 506.4 263.6 510.7C265.2 511.5 266.3 510.3 267.1 508.7 267.4 507.5 266.6 506 264.7 505.6L246.2 500.9 254.2 492.5C255.4 491.3 254.9 489.4 254.1 488.6 252.9 487.5 251.4 487.5 250.2 488.7L239.9 499.4 225.3 495.4 246 473.9C247.2 472.7 247.1 471.1 245.9 470 245.1 469.2 243.2 468.9 242 470.1L219 494 196.6 488.6 216.6 471.8 190.8 468.4 206.9 451.6 239.1 459.6C241 459.9 242.2 458.7 242.6 457.5 242.9 456.4 242.1 454.8 240.5 454.1L211.1 447.2 221.4 436.5 235.9 439.7C237.5 440.4 239.1 439.6 239.4 437.7 239.8 436.5 239 434.9 237 434.6L226 431.7 239.4 417.7C240.6 416.5 240.5 415 239.3 413.8S236.6 412.7 235.4 413.9L222 427.8 218.7 417C218.2 415 216.7 414.3 215.5 414.7 213.6 415.1 212.8 416.7 213.6 418.2L217.4 432.6 207.1 443.4 199.1 414.2C198.3 412.7 196.7 411.9 195.5 412.3 193.6 412.8 192.8 414.3 193.6 415.9L202.9 447.8 186.8 464.5 182.4 438.8 166.3 459.5 160 437.3 183 413.4C184.2 412.2 183.7 410.2 182.9 409.5 181.7 408.3 180.2 408.3 179 409.5L158 431.5 153.7 416.7 164.1 405.9C165.2 404.7 165.2 403.2 164 402 163.2 401.3 161.3 400.9 160.1 402.1L152.1 410.5 146.6 392.2C146.2 390.3 144.6 389.5 143 390.3 141.9 390.7 140.7 391.9 141.5 393.5L146.6 412.1 135.2 409.6C134 409.3 132.5 410.1 132.1 411.3 131.8 412.4 132.2 413.6 132.6 414 133 414.4 133.4 414.8 134.2 414.7L148.3 418.4 152.9 432.7 123.4 425.1C121.8 425.2 120.3 426 119.9 427.2 119.6 428.3 120 429.5 120.8 430.3 121.2 430.6 121.2 430.6 122 430.6L154.6 439 160.9 461.1 136.1 451.9 146.3 476.3 123.9 470.9 114.3 438.6C113.9 437.4 112.7 436.3 110.7 436.7 109.6 437.1 108.8 438.7 108.9 440.3L117.6 469.4 103.1 465.4 98.9 451.4C98.9 449.9 97.3 449.1 95.3 449.5 94.2 450 93.4 451.5 93.5 453.1L96.8 464 78 459.7C76.4 458.9 75.2 460.1 74.5 461.7 74.5 462.5 74.9 463.6 75.3 464 75.7 464.4 76.1 464.8 76.9 464.8L95.4 469.5 87.3 477.9C86.2 479.1 86.6 481 87.4 481.8L87.4 481.8C88.6 482.9 90.2 482.9 91.3 481.7L101.6 470.9 116.2 474.9 95.5 496.5C94.4 497.7 94.4 499.2 95.6 500.4S98.3 501.5 99.5 500.3L122.5 476.4 144.9 481.8 124.9 498.6 150.8 502 134.7 518.8 102.4 510.8C100.5 510.5 99.3 511.7 99 512.8 98.6 514 99.4 515.6 101 516.3L130.1 523.6 120.1 533.9 105.6 530.7C104 529.9 102.5 530.8 102.1 532.7 101.7 533.9 102.5 535.4 104.1 536.2L115.5 538.7 102.1 552.7C101 553.9 101 555.4 102.2 556.6S105 557.7 106.1 556.5L119.5 542.5 122.9 553.4C122.9 554.2 123.3 554.6 123.7 555 124.5 555.7 125.2 555.7 126 555.7 128 555.3 128.7 553.7 127.9 552.1L124.1 537.8 134.4 527 142.5 556.2C142.9 556.5 143.3 556.9 143.7 557.3 144.5 558.1 145.2 558.1 146 558 148 557.6 148.7 556 147.9 554.5L138.7 522.6 154.8 505.8 159.2 531.6 175.2 510.9 181.5 533.1 158.5 557C157.4 558.2 157.8 560.2 158.6 560.9 159.8 562.1 161.4 562 162.5 560.8L183.2 539.3 187.8 553.7 177.4 564.5C176.3 565.6 176.3 567.2 177.5 568.4S180.3 569.5 181.4 568.3L189.5 559.9 194.9 578.2C194.9 579 195.3 579.3 195.7 579.7 196.1 580.1 197.3 580.5 198.5 580.1 199.6 579.6 200.8 578.5 200 576.9ZM162.4 518.6L158.9 497.6 137.7 494.8 154.3 480.8 146 461.4 166.1 468.5 179.1 451.8 182.6 472.8 203.8 475.5 187.7 489.2 195.5 508.9 175.8 501.5 162.4 518.6Z" fill="rgba(110, 37, 134, 1)"></path><path d="M879.8 264.7L923.3 290.3 927.5 308.3 912.9 299.6C911.6 298.2 909.8 299.1 908.4 300.4 907.9 301.8 908.4 304 909.7 304.5L929.6 316.8 934.3 334.3 917 329.1 905.6 308.4C905.6 308.4 905.2 308 905.2 308 904.3 307.1 902.5 307 901.2 307.5 899.8 308.8 899.3 310.1 900.2 311.9L908.5 326.8 891.1 321.6 866.3 278C866.3 278 866.3 277.1 866.3 277.1 865.4 276.2 863.6 276.1 862.3 276.6 860.5 277.4 860 279.7 861.3 281L882.7 319.3 861.3 313.6 851.7 296.5C851.7 296.5 851.7 296.5 851.3 296.1 850.4 295.2 849 294.7 847.7 295.1 846.3 296.5 845.4 298.2 846.3 300L852.8 311.3 837.3 307.1C835.5 306.1 834.1 307.5 833.7 308.8 832.7 310.6 833.6 312.4 835.8 312.9L851 317.5 839.7 323.2C838.4 324.5 837.4 326.3 838.8 327.6 839.6 329.4 841 329.9 842.8 329L859.9 319.4 880.8 325.5 842.1 347.4C840.7 347.8 840.3 350 841.1 351.8 842 352.7 843.8 353.6 845.6 352.8L889.3 327.9 906.6 333 891.8 341.3C890 342.2 889.9 344 890.8 345.8 891.2 347.1 893.5 347.6 894.8 347.2L915.1 335.4 932.9 340.1 919.8 352.9 896.5 352.6C894.7 352.5 893.4 353.8 893.4 355.6 892.9 357 894.7 358.8 896.5 358.8L913.4 359 900.3 371.8 849.8 370.7C848 370.7 846.7 372 846.6 373.8 846.6 375.6 847.9 376.9 849.7 377L894 378 878.6 393 858.9 392.7C857.1 392.7 855.8 394 855.7 395.8 855.7 397.6 857 398.9 858.8 399L871.8 399.6 860.4 410.6C859.1 411.9 859.1 413.7 860.4 415.1 861.7 416.4 863.5 416.5 864.9 415.1L876.2 404.1 876 416.6C876 418.4 877.3 419.8 879.1 419.8S882.2 418.5 882.3 416.7L882.5 398 898.4 382.5 897.8 426.3C897.8 428.1 899.1 429.5 900.9 429.5 902.7 429.5 904 428.2 904 426.4L904.7 376.3 917.8 363.6 917.6 380.5C917.6 382.3 918.9 383.7 920.7 383.7 922.5 383.7 923.8 382.4 923.9 380.6L924.2 357.4 936.9 345 941.1 362.1 929.2 382.5C928.7 383.8 929.2 386.1 930.5 386.5 932.3 387.4 933.6 387 935 385.7L943.7 371.1 947.9 388.1 922.3 431.6C921.4 433.3 921.8 434.7 923.1 436 924.9 437 926.7 436.1 927.6 435.2L950.5 397.1 955.5 418.6 945.9 435C944.6 436.3 945.4 438.1 946.8 439.5 948.1 439.9 950.3 439.5 951.3 437.8L957.7 427.1 961.9 442.4C961.9 444.2 963.7 445.1 965.9 444.7 967.3 444.2 968.2 442.5 967.7 441.1L963.9 425.4 975 432.3C976.8 433.2 978.6 432.3 979.1 431 980.4 429.7 980 428.3 979.1 427.4 978.7 427 978.7 427 978.2 426.5L961.8 416.9 956.7 395.4 994.4 417.8C995.8 419.1 997.6 418.3 998.9 416.9 999.4 415.6 998.9 414.3 998.1 413.4 997.6 412.9 997.6 412.9 997.6 412.9L954.2 386.4 949.9 369.4 964.6 378C966.4 379 967.7 378.5 969.1 377.2 969.5 375.9 969.5 374.1 968.7 373.2 968.2 372.7 968.2 372.7 967.8 372.3L947.4 360.4 943.1 343.3 960.1 348 971.9 368.3C972.7 370.1 975 370.6 976.3 370.2 977.7 368.8 978.6 367.1 977.3 365.7L969 350.8 986.3 355.1 1011.2 399.7C1011.6 401 1013.9 401.5 1015.2 401.1 1016.6 399.8 1017.5 398 1016.6 396.2L995.2 357.9 1016.2 364 1025.3 380.7C1026.2 382.5 1028.4 382.9 1029.8 381.6 1031.1 381.2 1032 379.4 1031.2 377.6L1024.6 366.3 1040.2 370.6C1041.5 371 1043.3 370.2 1044.3 368.4 1044.3 367.5 1043.8 366.2 1043 365.2 1043 365.2 1042.5 364.8 1042.1 364.3L1026.5 360.1 1037.8 353.6C1039.1 353.1 1039.6 350.9 1039.1 349.6 1038.7 349.1 1038.7 349.1 1038.7 349.1 1037.4 347.7 1035.6 347.7 1034.7 348.6L1018 357.8 996.7 352.1 1035.4 330.3C1036.7 329 1037.2 327.6 1036.3 325.8 1036.3 325.8 1035.9 325.4 1035.9 325.4 1035 324.5 1033.7 324 1031.9 324.9L987.8 349.3 970.8 344.6 985.7 336.3C987.1 335 988 333.2 986.6 331.9 987.1 331.4 986.7 331 986.7 331 985.8 330.1 984 330 982.6 330.5L962.4 342.3 945 337.1 957.7 324.8 980.9 325.1C982.7 325.1 984.5 323.3 984.6 321.6 984.1 320.2 982.8 318.9 981.5 318.4L964 318.6 977.2 305.8 1027.2 306.5C1029 306.5 1030.4 305.2 1030.4 303.4 1030.4 301.6 1029.1 300.3 1027.3 300.2L983.5 299.6 999.4 284.2 1018.1 284.5C1019.9 284.5 1021.3 283.2 1021.3 281.4S1020 278.2 1018.2 278.2L1005.7 278 1017 267C1018.4 265.7 1018.4 263.9 1017.1 262.6 1015.8 261.2 1014 261.2 1012.6 262.5L1001.3 273.5 1001 260.5C1001 259.7 1001 258.8 1000.6 258.3 1000.2 257.9 998.8 257.4 997.9 257.4 996.1 257.4 994.8 258.7 994.8 260.5L994.9 279.7 979.1 295.1 979.2 250.9C979.3 250 979.3 249.1 978.8 248.6 978.4 248.2 977.1 247.7 976.2 247.7 974.4 247.7 973 249 973 250.8L972.8 301.3 959.6 314.1 960.3 296.6C960.3 295.8 959.4 294.8 959 294.4 958.6 293.9 958.1 293.5 957.2 293.5 955.4 293.5 953.6 295.2 954 296.6L953.3 320.2 940.6 332.6 935.9 315.1 948.3 295.1C948.7 293.8 948.7 292 947.9 291.1 947.4 290.7 947.4 290.7 947 291.1 945.6 289.7 943.4 290.2 942.5 291.9L933.8 306.6 929.1 289.1 955.6 245.6C956.1 244.3 955.7 243 954.8 242 954.3 241.6 954.3 241.6 954.3 241.6 952.6 240.7 950.8 240.7 949.9 242.4L927 280.6 921.9 259 931.5 242.6C932.5 240.9 932 239.5 931.1 238.6 931.1 238.6 930.7 238.1 930.7 238.1 928.9 237.2 927.1 238.1 926.2 239L919.8 250.5 916 234.8C915.6 234.4 915.1 233.9 914.7 233.5 914.2 233 912.9 232.5 912 232.5 910.2 233.4 908.8 234.7 909.7 236.5L913.5 252.2 902.4 245.4C900.7 244.4 898.9 245.3 898 246.2 897 248 897.9 249.8 899.2 251.1L915.6 260.7 921.2 281.8 883.5 259.4C881.7 258.5 879.5 258.9 879 260.2 878.1 262 878.1 263.8 879.8 264.7Z" fill="rgba(110, 37, 134, 1)"></path><path d="M1206.9 629.6L1257.1 634.7 1268.5 649.2 1251.5 647.5C1249.8 646.8 1248.5 648.3 1247.8 650.1 1248 651.5 1249.3 653.4 1250.7 653.2L1274 656.1 1285.5 670 1267.6 672.6 1248.6 658.5C1248.6 658.5 1248 658.3 1248 658.3 1246.9 657.8 1245.2 658.6 1244.2 659.5 1243.5 661.3 1243.6 662.7 1245.2 664L1258.9 674 1241 676.6 1200.1 647.3C1200.1 647.3 1199.8 646.5 1199.8 646.5 1198.6 646 1197 646.8 1195.9 647.7 1194.6 649.3 1195.1 651.5 1196.9 652.2L1232.3 678 1210.6 681.8 1194.7 670.3C1194.7 670.3 1194.7 670.3 1194.1 670.1 1192.9 669.6 1191.5 669.7 1190.5 670.7 1189.8 672.5 1189.7 674.5 1191.2 675.7L1201.9 683.2 1186 685.9C1184 685.8 1183.3 687.6 1183.4 689 1183.3 691 1184.9 692.2 1187.1 691.7L1202.8 689.7 1195 699.5C1194.3 701.3 1194.2 703.3 1196 703.9 1197.5 705.2 1198.9 705.1 1200.2 703.5L1211.7 687.7 1233.3 684.4 1207.2 720.5C1206.2 721.4 1206.7 723.6 1208.2 724.9 1209.4 725.4 1211.4 725.5 1212.6 723.9L1241.9 683 1259.8 680.4 1249.8 694.2C1248.5 695.7 1249.3 697.4 1250.8 698.6 1251.8 699.7 1254 699.2 1255 698.2L1268.5 679 1286.7 675.9 1280.1 693 1258.8 702.4C1257.2 703.1 1256.5 704.9 1257.3 706.5 1257.4 707.9 1259.7 708.8 1261.4 708.1L1276.9 701.2 1270.3 718.3 1224 738.4C1222.4 739.2 1221.7 740.9 1222.4 742.6 1223.1 744.2 1224.9 744.9 1226.5 744.1L1267.1 726.6 1259.4 746.6 1241.5 754.6C1239.8 755.4 1239.1 757.1 1239.9 758.8 1240.6 760.4 1242.4 761.1 1244 760.3L1256 755.5 1250.4 770.2C1249.7 772 1250.4 773.6 1252.2 774.3 1253.9 775 1255.6 774.3 1256.3 772.5L1261.9 757.8 1267 769.2C1267.7 770.8 1269.5 771.5 1271.1 770.8S1273.4 768.3 1272.7 766.7L1265.1 749.5 1273 728.9 1290.8 768.9C1291.6 770.5 1293.3 771.2 1295 770.5 1296.6 769.7 1297.3 768 1296.5 766.3L1276.2 720.6 1282.8 703.5 1289.7 719C1290.4 720.6 1292.2 721.3 1293.8 720.6 1295.5 719.9 1296.1 718.1 1295.4 716.5L1286 695.2 1292.3 678.7 1303.3 692.4 1301 715.9C1301.2 717.3 1302.5 719.2 1303.9 719.1 1305.9 719.2 1306.9 718.2 1307.6 716.4L1309.4 699.5 1320.4 713.2 1315.3 763.4C1315.2 765.4 1316.1 766.4 1317.9 767.1 1319.9 767.2 1321.2 765.7 1321.6 764.5L1326.4 720.3 1340.1 737.7 1338.2 756.6C1337.5 758.4 1339.1 759.7 1340.8 760.4 1342.2 760.2 1344.1 758.9 1344.2 756.9L1345.6 744.6 1355.8 756.6C1356.5 758.3 1358.5 758.4 1360.4 757 1361.4 756.1 1361.5 754.1 1360.6 753L1350.5 740.4 1363.5 742C1365.5 742.1 1366.7 740.5 1366.6 739.1 1367.3 737.3 1366.3 736.3 1365.2 735.9 1364.6 735.6 1364.6 735.6 1364 735.4L1345.1 733.5 1331.4 716.1 1375 720.7C1376.8 721.4 1378.1 719.8 1378.8 718.1 1378.6 716.7 1377.7 715.6 1376.5 715.2 1375.9 714.9 1375.9 714.9 1375.9 714.9L1325.4 709 1314.4 695.3 1331.3 697.1C1333.3 697.2 1334.3 696.2 1335 694.5 1334.9 693.1 1334.2 691.4 1333 691 1332.4 690.7 1332.4 690.7 1331.8 690.5L1308.3 688.3 1297.3 674.5 1314.7 671.7 1333.8 685.2C1335.4 686.5 1337.6 686 1338.7 685 1339.3 683.3 1339.4 681.3 1337.7 680.6L1323.9 670.6 1341.5 667.2 1382.7 697.2C1383.7 698.3 1385.9 697.8 1386.9 696.8 1387.6 695.1 1387.7 693.1 1386.2 691.8L1350.7 666 1372.3 662.8 1387.6 674.1C1389.1 675.3 1391.3 674.8 1392 673.1 1393.1 672.1 1393.2 670.1 1391.6 668.8L1380.9 661.3 1396.9 658.7C1398.3 658.5 1399.6 657 1399.6 655 1399.3 654.2 1398.3 653.1 1397.1 652.7 1397.1 652.7 1396.6 652.5 1396 652.2L1380 654.9 1387.5 644.2C1388.6 643.3 1388.1 641.1 1387.1 640 1386.5 639.8 1386.5 639.8 1386.5 639.8 1384.8 639.1 1383.1 639.8 1382.7 641L1371.4 656.3 1349.6 660.1 1375.6 624.1C1376.3 622.3 1376.2 620.9 1374.6 619.6 1374.6 619.6 1374.1 619.4 1374.1 619.4 1372.9 619 1371.5 619.1 1370.2 620.6L1340.3 661.3 1323 664.1 1333 650.4C1333.7 648.6 1333.8 646.6 1332 645.9 1332.3 645.3 1331.7 645.1 1331.7 645.1 1330.5 644.6 1328.9 645.4 1327.8 646.3L1314.3 665.5 1296.4 668.1 1302.8 651.6 1324 642.2C1325.6 641.4 1326.5 639.1 1325.8 637.4 1324.9 636.4 1323.1 635.7 1321.7 635.8L1305.9 643.3 1312.5 626.2 1358.3 605.9C1359.9 605.2 1360.6 603.4 1359.9 601.8 1359.1 600.1 1357.4 599.5 1355.7 600.2L1315.7 618 1323.6 597.3 1340.8 589.7C1342.4 589 1343.1 587.2 1342.4 585.6S1339.9 583.3 1338.3 584L1326.8 589.1 1332.5 574.3C1333.2 572.5 1332.4 570.9 1330.7 570.2 1328.9 569.6 1327.3 570.3 1326.6 572L1320.9 586.8 1315.2 575.1C1314.9 574.3 1314.5 573.5 1313.9 573.3 1313.3 573 1311.9 573.2 1311.1 573.5 1309.5 574.3 1308.8 576 1309.5 577.7L1317.7 595.1 1309.8 615.7 1291.4 575.4C1291.1 574.6 1290.7 573.8 1290.1 573.6 1289.5 573.4 1288.1 573.5 1287.3 573.9 1285.7 574.6 1285 576.4 1285.7 578L1306.6 624 1300 641.1 1293.4 625C1293 624.1 1291.8 623.7 1291.2 623.5 1290.7 623.2 1290.1 623 1289.2 623.4 1287.6 624.1 1286.7 626.4 1287.7 627.5L1296.9 649.3 1290.5 665.8 1278.9 651.9 1281.8 628.6C1281.7 627.2 1280.9 625.6 1279.8 625.1 1279.2 624.9 1279.2 624.9 1278.9 625.5 1277.2 624.8 1275.3 626.1 1275.2 628.1L1273.5 645.1 1261.9 631.1 1267.8 580.6C1267.6 579.2 1266.7 578.1 1265.5 577.7 1264.9 577.4 1264.9 577.4 1264.9 577.4 1262.9 577.4 1261.3 578.1 1261.2 580.1L1256.4 624.3 1242.8 606.8 1244.6 587.9C1244.7 585.9 1243.8 584.9 1242.6 584.4 1242.6 584.4 1242 584.2 1242 584.2 1240 584.1 1238.7 585.7 1238.3 586.8L1237.3 600 1227.3 587.3C1226.7 587.1 1226.1 586.9 1225.5 586.7 1224.9 586.4 1223.5 586.6 1222.7 586.9 1221.4 588.5 1220.7 590.2 1222.3 591.5L1232.3 604.2 1219.4 602.6C1217.4 602.5 1216.1 604 1215.6 605.2 1215.6 607.2 1217.1 608.5 1218.9 609.2L1237.8 611 1251.6 627.9 1208 623.3C1206 623.2 1204.2 624.5 1204.3 625.9 1204.2 627.9 1204.9 629.5 1206.9 629.6Z" fill="rgba(110, 37, 134, 1)"></path><path d="M923.4 951.7L886.2 958.7 874.9 950.6 887.5 948.3C888.9 948.4 889.5 947.1 889.6 945.6 889.2 944.7 887.9 943.6 886.9 944L869.5 946.9 858.3 939.3 870.6 933.6 887.2 939.7C887.2 939.7 887.7 939.8 887.7 939.8 888.6 939.9 889.7 939 890.2 938.1 890.3 936.7 889.9 935.7 888.6 935.1L876.5 930.8 888.9 925.1 924.5 937.5C924.5 937.5 924.9 938 924.9 938 925.9 938.1 926.9 937.2 927.5 936.3 928 935 927.2 933.5 925.8 933.3L894.8 922.3 909.7 914.9 923.6 919.8C923.6 919.8 923.6 919.8 924 919.9 925 920 926 919.6 926.5 918.7 926.6 917.2 926.3 915.8 924.9 915.2L915.6 912.1 926.5 906.8C928 906.4 928.1 905 927.7 904 927.3 902.6 925.9 902 924.5 902.8L913.6 907.6 917.2 898.9C917.3 897.5 916.9 896 915.5 895.9 914.1 895.3 913.1 895.7 912.6 897.1L907.6 911 892.8 917.8 903.9 886.4C904.5 885.5 903.6 884 902.2 883.4 901.3 883.3 899.8 883.7 899.3 885.1L886.9 920.7 874.5 926.3 878.8 914.3C879.4 912.9 878.5 911.9 877.2 911.3 876.3 910.8 874.8 911.6 874.2 912.5L868.6 929.2 856.2 935.3 857.3 921.6 870.6 910.3C871.6 909.5 871.7 908 870.9 907 870.5 906 868.6 905.9 867.5 906.8L857.8 915 858.9 901.3 888 877C889 876.2 889.2 874.7 888.3 873.7 887.4 872.7 886 872.6 885 873.5L859.5 894.7 860.8 878.6 872 869.1C873 868.2 873.2 866.8 872.3 865.8 871.4 864.7 870 864.6 869 865.5L861.4 871.5 862.3 859.7C862.4 858.3 861.6 857.3 860.1 857.2 858.7 857.1 857.7 857.9 857.6 859.4L856.6 871.2 850.5 864C849.7 863 848.3 862.9 847.2 863.7S846.1 866 847 867.1L856.1 877.8 854.8 894.3 833.5 869.3C832.6 868.3 831.2 868.2 830.2 869 829.2 869.9 829 871.3 829.9 872.3L854.2 900.9 853.1 914.6 844.9 904.9C844 903.9 842.6 903.8 841.6 904.7 840.5 905.5 840.4 906.9 841.3 908L852.6 921.2 851.5 934.5 840.7 926.9 837.4 909.6C837 908.6 835.6 907.5 834.6 907.9 833.2 908.3 832.6 909.2 832.5 910.6L834.8 923.1 824 915.6 817 878.4C816.7 877 815.8 876.4 814.4 876.3 812.9 876.7 812.3 878 812.2 879L818.2 911.8 804.7 902.2 802 888.1C802.1 886.7 800.7 886.1 799.3 886 798.3 886.4 797.3 887.8 797.6 889.2L799.3 898.4 789.3 891.9C788.5 890.9 787 891.2 785.9 892.6 785.4 893.5 785.8 894.9 786.7 895.5L796.6 902.5 786.9 904C785.5 904.4 784.9 905.8 785.3 906.8 785.2 908.2 786.1 908.7 787 908.8 787.5 908.9 787.5 908.9 788 908.9L802 906.2 815.4 915.9 783.1 921.8C781.7 921.7 781.1 923.1 781 924.5 781.4 925.5 782.3 926 783.2 926.1 783.7 926.1 783.7 926.1 783.7 926.1L821.3 919.7 832.1 927.2 819.6 929.5C818.1 929.9 817.6 930.8 817.5 932.2 817.9 933.2 818.7 934.2 819.7 934.3 820.1 934.3 820.1 934.3 820.6 934.4L838 931 848.8 938.5 836.9 944.2 820.3 938.6C818.9 938 817.4 938.8 816.8 939.8 816.7 941.2 817.1 942.6 818.5 942.7L830.5 947 818.6 953.2 782.6 940.3C781.7 939.8 780.2 940.6 779.6 941.5 779.5 942.9 779.9 944.4 781.2 945L812.2 956 797.4 962.9 784 958C782.6 957.4 781.1 958.3 781 959.7 780.4 960.6 780.8 962 782.2 962.6L791.4 965.8 780.6 971.1C779.6 971.5 779 972.8 779.3 974.3 779.8 974.8 780.7 975.4 781.6 975.4 781.6 975.4 782.1 975.5 782.6 975.5L793.5 970.2 790.3 979.5C789.8 980.4 790.6 981.9 791.5 982.4 792 982.4 792 982.4 792 982.4 793.4 982.6 794.4 981.7 794.5 980.8L799.4 967.4 814.3 960 803.2 991.4C803 992.9 803.4 993.8 804.8 994.4 804.8 994.4 805.3 994.5 805.3 994.5 806.2 994.5 807.2 994.1 807.8 992.8L820.7 957.2 832.5 951.5 828.2 963.5C828.1 964.9 828.5 966.4 829.9 966.5 829.9 967 830.3 967 830.3 967 831.3 967.1 832.3 966.2 832.9 965.3L838.5 948.6 850.8 943 849.8 956.2 836.5 967.5C835.5 968.4 835.3 970.3 836.2 971.3 837.1 971.8 838.5 971.9 839.5 971.5L849.2 962.8 848.1 976.5 819.5 1000.8C818.5 1001.7 818.4 1003.1 819.3 1004.1 820.1 1005.2 821.5 1005.3 822.6 1004.4L847.6 983.1 846.2 999.7 835.5 1008.8C834.5 1009.7 834.4 1011.1 835.3 1012.1S837.5 1013.2 838.6 1012.4L845.7 1006.3 844.8 1018.1C844.6 1019.5 845.5 1020.5 846.9 1020.7 848.3 1020.8 849.4 1019.9 849.5 1018.5L850.4 1006.7 857 1013.9C857.4 1014.4 857.9 1014.9 858.3 1014.9 858.8 1015 859.8 1014.6 860.3 1014.1 861.3 1013.3 861.4 1011.8 860.6 1010.8L851 1000.1 852.3 983.5 874.1 1008.6C874.5 1009.1 874.9 1009.6 875.4 1009.6 875.9 1009.7 876.9 1009.3 877.4 1008.8 878.4 1008 878.5 1006.6 877.6 1005.5L852.8 976.9 853.9 963.2 862.2 973.4C862.6 973.9 863.5 974 864 974 864.5 974 865 974.1 865.5 973.6 866.5 972.8 866.6 970.9 865.7 970.3L854.5 956.6 855.6 943.4 866.8 950.9 869.7 968.3C870.1 969.3 871 970.3 871.9 970.4 872.4 970.4 872.4 970.4 872.4 969.9 873.8 970 874.9 968.7 874.5 967.2L872.2 954.7 883.5 962.3 890 999.9C890.4 1000.9 891.3 1001.4 892.2 1001.5 892.7 1001.5 892.7 1001.5 892.7 1001.5 894.2 1001.2 895.2 1000.3 894.8 998.8L888.9 966 902.4 975.7 905.1 989.7C905.4 991.1 906.3 991.7 907.3 991.8 907.3 991.8 907.8 991.8 907.8 991.8 909.2 991.4 909.8 990.1 909.9 989.1L907.8 979.4 917.7 986.4C918.2 986.5 918.6 986.5 919.1 986.5 919.6 986.6 920.6 986.2 921.1 985.7 921.7 984.4 921.8 983 920.4 982.4L910.5 975.4 920.1 973.8C921.6 973.4 922.2 972 922.3 971.1 921.9 969.6 920.5 969.1 919.1 968.9L905.1 971.6 891.6 962.4 923.9 956.5C925.4 956.1 926.4 954.8 926 953.8 925.7 952.4 924.8 951.3 923.4 951.7Z" fill="rgba(110, 37, 134, 1)"></path><path d="M1229.1 241.7L1190.7 220 1186.8 204.3 1199.7 211.7C1200.9 212.9 1202.4 212.1 1203.6 210.9 1204 209.7 1203.6 207.8 1202.4 207.4L1184.8 196.9 1180.4 181.7 1195.7 185.9 1205.9 203.9C1205.9 203.9 1206.3 204.3 1206.3 204.3 1207.1 205 1208.7 205 1209.8 204.6 1211 203.5 1211.4 202.3 1210.6 200.7L1203.1 187.9 1218.4 192.1 1240.8 230C1240.8 230 1240.8 230.7 1240.8 230.7 1241.6 231.5 1243.2 231.5 1244.4 231.1 1245.9 230.3 1246.3 228.4 1245.1 227.2L1225.8 194 1244.6 198.7 1253.3 213.5C1253.3 213.5 1253.3 213.5 1253.7 213.9 1254.5 214.7 1255.6 215 1256.8 214.6 1258 213.5 1258.8 211.9 1258 210.3L1252.1 200.6 1265.8 204.1C1267.3 204.8 1268.5 203.7 1268.9 202.5 1269.7 200.9 1268.9 199.4 1266.9 199L1253.6 195.1 1263.4 190C1264.5 188.8 1265.3 187.2 1264.1 186.1 1263.3 184.5 1262.2 184.1 1260.6 184.9L1245.8 193.6 1227.4 188.6 1260.9 168.9C1262.1 168.5 1262.5 166.5 1261.7 165 1260.9 164.2 1259.4 163.4 1257.8 164.2L1220 186.6 1204.7 182.4 1217.6 174.9C1219.1 174.1 1219.1 172.5 1218.3 171 1217.9 169.8 1216 169.4 1214.8 169.8L1197.2 180.4 1181.6 176.6 1192.9 165.2 1213.2 165.1C1214.8 165.1 1216 164 1216 162.4 1216.3 161.2 1214.8 159.7 1213.2 159.7L1198.4 159.7 1209.7 148.3 1253.8 148.6C1255.4 148.6 1256.6 147.4 1256.6 145.8 1256.6 144.3 1255.4 143.1 1253.8 143.1L1215.1 142.8 1228.4 129.5 1245.6 129.4C1247.1 129.4 1248.3 128.3 1248.3 126.7 1248.3 125.1 1247.1 124 1245.5 124L1234.2 123.6 1243.9 113.8C1245.1 112.6 1245.1 111.1 1243.9 109.9 1242.8 108.7 1241.2 108.7 1240 109.9L1230.3 119.7 1230.2 108.8C1230.2 107.2 1229.1 106 1227.5 106S1224.8 107.2 1224.8 108.8L1224.8 125.2 1211.2 138.9 1211 100.6C1211 99.1 1209.9 97.9 1208.3 97.9 1206.7 97.9 1205.6 99.1 1205.6 100.6L1205.7 144.4 1194.4 155.8 1194.4 141C1194.4 139.4 1193.2 138.2 1191.6 138.2 1190.1 138.2 1188.9 139.4 1188.9 141L1189 161.3 1178.1 172.3 1174.1 157.5 1184.2 139.4C1184.6 138.3 1184.2 136.3 1183 135.9 1181.5 135.1 1180.3 135.5 1179.1 136.7L1171.7 149.6 1167.8 134.8 1189.5 96.4C1190.3 94.8 1189.9 93.7 1188.7 92.5 1187.2 91.7 1185.6 92.5 1184.8 93.3L1165.4 127 1160.6 108.2 1168.8 93.7C1170 92.6 1169.2 91 1168 89.8 1166.8 89.4 1164.9 89.8 1164.1 91.4L1158.7 100.8 1154.7 87.5C1154.7 86 1153.1 85.2 1151.2 85.6 1150 86 1149.2 87.5 1149.6 88.7L1153.2 102.4 1143.4 96.6C1141.8 95.8 1140.3 96.6 1139.9 97.7 1138.7 98.9 1139.1 100.1 1139.9 100.9 1140.3 101.3 1140.3 101.3 1140.7 101.7L1155.2 109.8 1159.9 128.6 1126.6 109.5C1125.4 108.4 1123.9 109.1 1122.7 110.3 1122.3 111.5 1122.7 112.7 1123.5 113.4 1123.9 113.8 1123.9 113.8 1123.9 113.8L1162.3 136.4 1166.3 151.2 1153.3 143.8C1151.8 143.1 1150.6 143.5 1149.4 144.6 1149 145.8 1149 147.4 1149.8 148.2 1150.2 148.5 1150.2 148.5 1150.6 148.9L1168.6 159 1172.6 173.9 1157.7 170 1147.1 152.5C1146.3 150.9 1144.4 150.5 1143.2 150.9 1142 152.1 1141.2 153.7 1142.4 154.8L1149.9 167.7 1134.6 164.2 1112.2 125.6C1111.8 124.4 1109.9 124 1108.7 124.4 1107.5 125.6 1106.7 127.2 1107.5 128.7L1126.8 161.9 1108.4 156.9 1100.1 142.5C1099.4 140.9 1097.4 140.5 1096.2 141.7 1095.1 142.1 1094.3 143.7 1095.1 145.2L1101 155 1087.3 151.5C1086.1 151.1 1084.5 151.9 1083.8 153.5 1083.8 154.2 1084.2 155.4 1084.9 156.2 1084.9 156.2 1085.3 156.6 1085.7 157L1099.4 160.5 1089.7 166.4C1088.5 166.7 1088.1 168.7 1088.5 169.9 1088.9 170.3 1088.9 170.3 1088.9 170.3 1090.1 171.4 1091.6 171.4 1092.4 170.6L1106.9 162.4 1125.6 167 1092.1 186.7C1090.9 187.9 1090.5 189 1091.3 190.6 1091.3 190.6 1091.7 191 1091.7 191 1092.5 191.8 1093.7 192.1 1095.2 191.4L1133.5 169.3 1148.3 173.2 1135.5 180.7C1134.3 181.8 1133.5 183.4 1134.7 184.6 1134.3 185 1134.7 185.4 1134.7 185.4 1135.5 186.1 1137.1 186.1 1138.2 185.7L1155.8 175.1 1171 179.4 1160.1 190.3 1139.8 190.4C1138.2 190.4 1136.7 192 1136.7 193.6 1137.1 194.7 1138.3 195.9 1139.4 196.3L1154.7 195.8 1143.4 207.2 1099.6 207.4C1098 207.4 1096.9 208.6 1096.9 210.1 1096.9 211.7 1098 212.9 1099.6 212.8L1137.9 212.7 1124.3 226.4 1107.9 226.5C1106.3 226.5 1105.1 227.7 1105.1 229.3S1106.3 232 1107.9 232L1118.8 231.9 1109.1 241.8C1107.9 242.9 1107.9 244.5 1109.1 245.7 1110.3 246.8 1111.8 246.8 1113 245.6L1122.8 235.8 1123.2 247.2C1123.2 248 1123.2 248.7 1123.6 249.1 1124 249.5 1125.2 249.9 1125.9 249.9 1127.5 249.9 1128.7 248.7 1128.7 247.2L1128.2 230.3 1141.8 216.6 1142.4 255.3C1142.4 256.1 1142.4 256.9 1142.8 257.3 1143.2 257.7 1144.3 258.1 1145.1 258.1 1146.7 258 1147.9 256.9 1147.8 255.3L1147.3 211.1 1158.6 199.7 1158.3 215C1158.3 215.8 1159.1 216.6 1159.4 216.9 1159.8 217.3 1160.2 217.7 1161 217.7 1162.6 217.7 1164.1 216.1 1163.7 215L1164.1 194.2 1175 183.3 1179.3 198.5 1168.8 216.1C1168.4 217.3 1168.4 218.9 1169.2 219.6 1169.6 220 1169.6 220 1170 219.6 1171.2 220.8 1173.1 220.4 1173.9 218.8L1181.3 205.9 1185.7 221.2 1163.1 259.6C1162.7 260.7 1163.1 261.9 1163.9 262.7 1164.3 263.1 1164.3 263.1 1164.3 263.1 1165.9 263.8 1167.4 263.8 1168.2 262.3L1187.6 228.6 1192.4 247.3 1184.2 261.8C1183.5 263.4 1183.9 264.6 1184.6 265.3 1184.6 265.3 1185 265.7 1185 265.7 1186.6 266.5 1188.2 265.7 1188.9 264.9L1194.4 254.7 1197.9 268.4C1198.3 268.8 1198.7 269.2 1199.1 269.6 1199.5 270 1200.7 270.4 1201.5 270.4 1203 269.6 1204.2 268.4 1203.4 266.8L1199.8 253.2 1209.6 259C1211.2 259.8 1212.8 259 1213.6 258.2 1214.3 256.6 1213.5 255.1 1212.4 253.9L1197.9 245.7 1192.7 227.4 1226 246.4C1227.6 247.2 1229.5 246.8 1229.9 245.6 1230.7 244.1 1230.7 242.5 1229.1 241.7Z" fill="rgba(110, 37, 134, 1)"></path><path d="M646.5 291L636.7 254.5 643.9 242.7 647.1 255C647.1 256.4 648.5 256.9 650 256.9 650.9 256.5 651.9 255 651.4 254.1L647.2 237 653.9 225.2 660.5 237.1 655.7 254.1C655.7 254.1 655.7 254.6 655.7 254.6 655.7 255.5 656.6 256.5 657.6 256.9 659 257 659.9 256.5 660.4 255.1L663.8 242.7 670.4 254.6 660.8 291.1C660.8 291.1 660.3 291.6 660.3 291.6 660.3 292.5 661.2 293.5 662.2 293.9 663.6 294.4 665 293.5 665 292L673.7 260.3 682.1 274.6 678.3 288.8C678.3 288.8 678.3 288.8 678.3 289.2 678.3 290.2 678.8 291.1 679.7 291.6 681.1 291.6 682.6 291.2 683 289.7L685.4 280.3 691.6 290.7C692 292.1 693.5 292.1 694.4 291.7 695.8 291.2 696.3 289.8 695.4 288.4L689.7 277.9 698.7 280.8C700.1 280.8 701.6 280.3 701.6 278.9 702 277.5 701.6 276.5 700.2 276L685.9 272.2 677.9 258 710.1 266.6C711.1 267.1 712.5 266.1 713 264.7 713 263.8 712.5 262.3 711.1 261.9L674.6 252.3 668 240.4 680.3 243.7C681.8 244.2 682.7 243.3 683.2 241.9 683.7 240.9 682.7 239.5 681.8 239L664.7 234.7 657.7 222.8 671.4 222.9 683.7 235.2C684.6 236.2 686.1 236.2 687 235.2 688 234.8 688 232.9 687 231.9L678 222.9 691.8 222.9 718.2 250C719.2 251 720.6 251 721.6 250 722.5 249.1 722.5 247.7 721.6 246.7L698.4 222.9 714.5 223 724.9 233.5C725.9 234.4 727.3 234.4 728.3 233.5 729.2 232.5 729.2 231.1 728.3 230.2L721.6 223 733.5 223.1C734.9 223.1 735.9 222.1 735.9 220.7 735.9 219.3 734.9 218.3 733.5 218.3L721.7 218.3 728.3 211.7C729.3 210.7 729.3 209.3 728.3 208.3S726 207.4 725 208.3L715 218.3 698.4 218.2 721.7 195.1C722.7 194.1 722.7 192.7 721.7 191.7 720.8 190.8 719.4 190.8 718.4 191.7L691.8 218.2 678.1 218.1 687.1 209.2C688 208.2 688 206.8 687.1 205.8 686.2 204.9 684.7 204.9 683.8 205.8L671.4 218.1 658.1 218.1 664.8 206.7 681.9 202C682.8 201.6 683.8 200.2 683.3 199.2 682.9 197.8 681.9 197.3 680.5 197.3L668.2 200.6 674.8 189.2 711.4 179.4C712.8 178.9 713.3 178 713.3 176.5 712.8 175.1 711.4 174.6 710.4 174.6L678.2 183.1 686.7 168.9 700.5 165.1C701.9 165.1 702.4 163.7 702.4 162.3 701.9 161.3 700.5 160.4 699.1 160.9L690.1 163.2 695.8 152.8C696.8 151.8 696.3 150.4 694.9 149.5 693.9 149 692.5 149.5 692 150.4L685.8 160.8 683.5 151.3C683 149.9 681.6 149.4 680.6 149.9 679.2 149.9 678.7 150.8 678.7 151.8 678.7 152.3 678.7 152.3 678.7 152.7L682.5 166.5 673.9 180.7 665.5 148.9C665.5 147.5 664.1 147 662.6 147 661.7 147.5 661.2 148.4 661.2 149.4 661.2 149.8 661.2 149.8 661.2 149.8L670.6 186.8 663.9 198.2 660.6 185.9C660.2 184.4 659.2 184 657.8 184 656.8 184.4 655.9 185.4 655.9 186.3 655.9 186.8 655.9 186.8 655.9 187.3L660.6 204.3 653.9 215.7 647.3 204.3 651.6 187.3C652.1 185.8 651.1 184.4 650.2 183.9 648.8 183.9 647.4 184.4 647.3 185.8L644 198.1 636.9 186.7 647 149.8C647.5 148.8 646.5 147.4 645.6 146.9 644.2 146.9 642.7 147.4 642.3 148.8L633.6 180.6 625.6 166.3 629.4 152.6C629.9 151.2 629 149.7 627.6 149.7 626.6 149.3 625.2 149.7 624.7 151.1L622.3 160.6 616.2 150.2C615.7 149.2 614.3 148.7 612.9 149.2 612.4 149.7 611.9 150.6 611.9 151.6 611.9 151.6 611.9 152.1 611.9 152.5L618 163 608.6 160.6C607.6 160.1 606.2 161 605.7 162 605.7 162.5 605.7 162.5 605.7 162.5 605.7 163.9 606.7 164.8 607.6 164.8L621.3 168.7 629.8 182.9 597.6 174.3C596.2 174.3 595.2 174.8 594.8 176.2 594.8 176.2 594.8 176.6 594.8 176.6 594.8 177.6 595.2 178.5 596.7 179L633.1 189.1 639.7 200.5 627.4 197.1C626 197.1 624.6 197.6 624.6 199 624.1 199 624.1 199.5 624.1 199.5 624.1 200.4 625 201.4 626 201.9L643 206.2 649.6 218.1 636.3 218 624.1 205.7C623.1 204.7 621.2 204.7 620.3 205.6 619.8 206.6 619.8 208 620.3 209L629.7 218 616 218 589.5 191.3C588.6 190.4 587.1 190.4 586.2 191.3 585.2 192.3 585.2 193.7 586.2 194.6L609.3 217.9 592.7 217.9 582.8 207.9C581.9 206.9 580.4 206.9 579.5 207.9S578.5 210.2 579.5 211.2L586.1 217.9 574.3 217.8C572.8 217.8 571.9 218.8 571.9 220.2 571.9 221.6 572.8 222.6 574.2 222.6L586.1 222.6 579.4 229.7C579 230.2 578.5 230.6 578.5 231.1 578.5 231.6 578.9 232.5 579.4 233 580.4 234 581.8 234 582.7 233L592.7 222.6 609.3 222.7 586 246.3C585.5 246.8 585.1 247.2 585.1 247.7 585.1 248.2 585.5 249.1 586 249.6 586.9 250.6 588.4 250.6 589.3 249.6L615.9 222.7 629.7 222.7 620.2 231.7C619.7 232.2 619.7 233.1 619.7 233.6 619.7 234.1 619.7 234.6 620.2 235 621.1 236 623 236 623.5 235L636.3 222.8 649.6 222.8 642.9 234.6 625.9 238.8C624.9 239.3 624 240.3 623.9 241.2 623.9 241.7 623.9 241.7 624.4 241.7 624.4 243.1 625.8 244.1 627.3 243.6L639.6 240.3 632.9 252.1 595.9 261.5C595 262 594.5 262.9 594.5 263.9 594.5 264.3 594.5 264.3 594.5 264.3 595 265.8 595.9 266.7 597.3 266.2L629.6 257.8 621 272 607.2 275.8C605.8 276.2 605.3 277.2 605.3 278.1 605.3 278.1 605.3 278.6 605.3 278.6 605.8 280 607.2 280.5 608.2 280.5L617.7 277.7 611.5 288.1C611.5 288.6 611.5 289 611.5 289.5 611.5 290 611.9 290.9 612.4 291.4 613.8 291.9 615.3 291.9 615.7 290.5L621.9 280.1 624.3 289.6C624.7 291 626.2 291.5 627.1 291.5 628.5 291 629 289.6 629 288.1L625.3 274.4 633.4 260.2 641.8 292C642.3 293.4 643.7 294.4 644.6 293.9 646.1 293.4 647 292.5 646.5 291Z" fill="rgba(110, 37, 134, 1)"></path><path d="M908.7 660.5L895.4 638 897 631 912.5 626.6 917.9 631.6 918.1 657.9C918.2 658.2 918.2 658.2 918.3 658.5 918.5 659.1 918.9 659.6 919.9 659.6 920.8 659.4 921.4 658.9 921.4 657.9L921.1 635 929.3 642.8 929.5 653C929.5 653 929.6 653.3 929.6 653.3 929.8 653.9 930.3 654.4 931.3 654.4 932 654.6 932.7 653.7 932.7 652.7L932.8 646.1 938.8 652C939.3 652.5 940.3 652.5 941.1 652S941.6 650.2 941 649.4L935.1 643.8 941.7 643.6C942.7 643.6 943.4 642.8 943.4 641.8 943.3 641.2 942.7 640.3 941.7 640.3L931.6 640.5 923.3 632.4 946.3 632.1C947.3 632.1 948 631.3 948.1 630.6 947.9 629.7 947.3 628.8 946.3 628.8L920.2 629.3 914.7 624 918.6 608.8 925.9 606.7 948.8 619.2C949.6 619.6 950.5 619.4 951 618.6S951.1 616.9 950.4 616.5L930.1 605.5 941.4 602.3 950 607.1C950.8 607.5 951.7 607.2 952.4 606.4S952.6 604.7 951.8 604.2L945.6 601.1 953.8 598.7C954.8 598.5 955.1 597.4 954.8 596.5 954.6 595.6 953.8 595.1 952.9 595.4L944.7 597.7 947.9 591.9C948.7 591 948.4 590.1 947.3 589.7 946.6 589.3 945.6 589.6 945.2 590.3L940.4 598.9 929.2 602.1 940.6 582.1C941 581.4 940.7 580.1 939.9 579.7S938.2 579.5 937.8 580.3L924.9 603.3 917.6 605.4 906.2 594.2 908.1 587.1 930.6 573.8C931.5 573.2 931.5 572.2 931.2 571.3 930.7 570.5 929.7 570.4 928.8 570.7L909.1 582.5 911.9 571.6 920.7 566.4C921.5 565.9 921.5 564.9 921.3 564 920.8 563.5 919.7 563.1 918.9 563.7L913.2 566.9 915.2 558.8C915.3 558.1 914.8 557.3 914 556.8 913 556.8 912.2 557.4 912 558.1L910.1 566.2 906.4 560.3C906 559.8 904.9 559.4 904.3 559.9 903.4 560.2 903.3 560.9 903.6 561.8 903.6 561.8 903.7 562.1 903.7 562.1L908.8 570.8 906 581.8 894.1 562.2C893.6 561.3 892.8 560.9 892 561.5 891.1 562 891 562.7 891.2 563.3 891.3 563.6 891.3 563.6 891.3 563.6L905 586.4 903.1 593.5 887.6 597.9 882.5 592.8 881.9 566.3C882 565.6 881.1 564.9 880.4 564.8 879.4 564.7 878.7 565.6 878.6 566.6L878.9 589.5 870.8 581.6 870.5 571.5C870.6 570.5 870 569.7 869.1 570 868.1 569.9 867.4 570.8 867.2 571.5L867.5 578.3 861.6 572.4C860.8 572 859.8 572 859 572.5 858.8 572.9 858.6 573.6 858.8 574.2 858.9 574.5 858.9 574.5 859.3 574.7L865.2 580.6 858.4 580.9C857.4 580.9 857 581.6 856.8 582.3 856.9 582.6 856.9 582.6 857 582.9 857.2 583.5 857.7 584.1 858.4 584.2L868.5 583.9 876.6 591.8 853.7 592.1C852.8 592.3 852 592.9 852.2 593.8 852 594.2 852 594.2 852.1 594.5 852.3 595.1 853.1 595.6 853.7 595.7L880.2 595.1 885.3 600.2 881.5 615.7 874.5 617.7 851.4 604.9C850.7 604.5 849.4 604.8 849 605.6S848.9 607.6 849.7 608L869.9 619 859 622.1 850.1 617.4C849.3 617 848.4 617.3 848 618 847.5 618.8 847.8 619.7 848.6 620.2L854.4 623.4 846.2 625.8C845.6 625.9 844.9 626.8 845.1 627.7 845.4 628.6 846.6 629.3 847.2 629.1L855.4 626.8 852.1 632.6C851.9 633 851.7 633.4 851.8 633.7 851.9 634.3 852.3 634.5 852.7 634.8 853.5 635.2 854.4 634.9 854.8 634.2L859.9 625.5 870.9 622.4 859.5 642.4C859.3 642.7 859.4 643.1 859.5 643.7 859.6 644 859.7 644.3 860.1 644.5 860.9 644.9 862.1 644.6 862.5 643.8L875.4 621.1 882.4 619.1 893.7 630 892.2 637.3 869.4 650.7C868.9 651.2 868.5 652 868.6 652.6 868.7 652.9 868.7 652.9 869 652.8 869.3 653.7 870.4 654 871.2 653.5L890.8 641.6 888.1 652.9 879.4 658C878.9 658.5 878.7 659.2 878.9 659.8 878.9 659.8 879 660.1 879 660.1 879.3 661 880.3 661.4 881.2 660.8L887 657.2 885.1 665.3C884.9 665.7 884.9 666 885 666.3 885.2 666.9 885.7 667.4 886 667.3 887.1 667.7 887.9 667.1 888.3 666.3L890.3 658.2 893.5 663.9C894.1 664.7 895.2 665 896 664.5 896.5 664 896.9 662.9 896.4 662.4L891.3 653.7 894.1 642.7 905.9 662.3C906.5 663.1 907.5 663.2 908.4 662.9 908.9 662.5 909.3 661.4 908.7 660.5ZM909.7 623.8L897.9 627.2 896 627.7 894.7 626.4 886.1 618 884.6 616.5 885.1 614.7 888 603 888.5 601.2 890.3 600.7 902.2 597.3 904 596.8 905.4 598.1 914 606.5 915.3 607.7 914.9 609.8 912 621.5 911.5 623.3 909.7 623.8Z" fill="rgba(110, 37, 134, 1)"></path><path d="M567.7 425.9L523.3 437.7 488.1 416.9 523.7 396.7 567.8 409.3C567.8 409.3 568.4 409.3 568.4 409.3 569.5 409.3 570.6 408.2 571.2 407.1 571.7 405.4 570.6 403.8 569 403.8L530.4 392.9 547.6 383.1 564.7 387.7C564.7 387.7 565.2 387.7 565.2 387.7 566.4 387.7 567.5 386.6 568 385.5 568.6 383.9 567.5 382.2 565.8 382.2L554.3 378.7 567 371.7C568.2 371.1 568.7 368.9 568.2 367.8 567.6 366.1 565.4 366.1 564.3 366.7L551.5 373.7 555 362.2C555.5 360.5 554.4 358.8 552.8 358.8 551.1 358.3 549.5 359.4 549.4 361L544.9 378.1 527.6 387.4 538.5 348.7C539.1 347.1 538 345.4 536.3 345.4 534.6 344.8 533 345.9 533 347.6L520.4 391.7 484.8 411.9 485.2 370.4 518.1 338.1C519.2 337 519.2 335.3 518.2 334.2 517.1 333.1 515.4 333.1 514.3 334.2L485.3 362.7 485.4 342.8 497.7 330.7C498.8 329.6 498.9 327.9 497.8 326.8 496.7 325.7 495 325.7 493.9 326.8L485.5 335 485.7 319.5C486.2 317.9 484.6 316.8 482.9 316.7 481.3 316.7 480.1 317.8 480.1 319.5L480 333.9 471.8 325.5C470.7 324.4 469 324.4 467.9 325.5S466.8 328.2 467.9 329.3L479.9 341.6 479.8 361.5 451.3 332.5C450.2 331.4 448.5 331.4 447.4 332.5 446.3 333.6 446.2 335.2 447.3 336.3L479.7 369.2 479.3 410.2 444.1 389.4 432.9 346.2C432.3 344.5 430.7 343.9 429 343.9 427.4 344.5 426.8 346.1 426.8 347.8L437 386.6 419.9 376.5 415.6 359.3C415.1 357.6 413.4 357.1 411.8 357 410.1 357.6 409.5 359.2 409.5 360.3L412.7 372 400.1 364.7C399 364.1 396.8 364.1 396.2 365.8 395.6 367.4 395.6 369.1 397.3 369.6L409.9 376.9 398.3 380.2C396.6 380.7 396.1 382.3 396.1 383.5 396.6 384.6 397.7 385.7 398.8 385.7 398.8 385.7 399.4 385.7 399.4 385.7L416.5 381.4 433.6 391.5 394.8 401.7C393.1 402.2 392.6 403.9 392.6 405 393.1 406.1 394.2 407.2 395.3 407.2 395.3 407.2 395.8 407.2 395.8 407.2L440.2 395.5 475.4 416.2 439.8 436.4 395.7 423.8C394.1 423.3 392.4 424.3 392.4 426 391.8 427.7 392.9 429.3 394.6 429.3L433.2 440.2 415.9 450 398.8 445.4C397.2 444.8 395.5 445.9 395.5 447.6 394.9 449.3 396 450.9 397.7 450.9L409.3 454.4 396.5 461.4C395.4 462 394.8 464.2 395.3 465.3 395.9 466.4 397 467 398.1 467 398.6 467 399.2 467 399.8 466.4L412.5 459.4 409.1 470.9C408.6 472.6 409.6 474.3 411.3 474.3 411.3 474.3 411.9 474.3 411.9 474.3 413 474.3 414.1 473.2 414.6 472.1L419.2 455 436.4 445.2 425.6 483.8C425 485.5 426.1 487.1 427.8 487.1 427.8 487.1 428.3 487.1 428.3 487.1 429.4 487.2 430.6 486.1 431.1 485L443.7 440.8 479.2 420.7 478.9 461.6 446 493.9C444.9 495 444.8 496.7 445.9 497.8 447 498.9 448.7 498.9 449.8 497.8L478.8 469.9 478.6 489.8 466.4 501.9C465.2 503 465.2 504.6 466.3 505.7S469.1 506.9 470.2 505.8L478.6 497.5 478.4 511.9C478.4 513.6 479.5 514.7 481.2 514.7 482.8 514.7 484 513.6 484 512L484.1 497.6 492.3 506C492.9 506.5 493.4 507.1 494.5 507.1S496.2 506.5 496.7 506C497.9 504.9 497.9 503.2 496.8 502.1L484.7 489.9 484.9 469.9 513.4 499C513.9 499.5 514.5 500.1 515.6 500.1 516.2 500.1 517.3 499.5 517.8 499 518.9 497.9 518.9 496.2 517.9 495.1L485.5 462.2 485.9 421.3 521.1 442.1 532.9 486.4C533.4 487.5 534.5 488.6 535.6 488.6 535.6 488.6 536.2 488.6 536.2 488.6 537.8 488.1 538.4 486.4 538.4 485.3L528.2 446.5 545.3 456.6 549.6 473.8C550.1 474.9 551.2 476.1 552.3 476.1 552.3 476.1 552.9 476.1 552.9 476.1 554.5 475.5 555.1 473.9 555.1 472.8L551.9 461.1 564.5 468.4C565.1 468.4 565.6 469 566.2 469 567.3 469 568.4 468.5 569 467.4 569.5 465.7 569.6 464 567.9 463.5L555.2 456.2 566.9 453C568.6 452.4 569.1 450.8 569.1 449.7 568.6 448 566.9 447.4 565.8 447.4L548.6 451.7 531.6 441.6 570.4 431.4C572.1 430.9 572.6 429.2 572.6 428.1 571 426.5 569.3 425.3 567.7 425.9Z" fill="rgba(110, 37, 134, 1)"></path></g><defs><mask id="SvgjsMask1026"><rect width="1422" height="980" fill="#ffffff"></rect></mask><filter id="SvgjsFilter1027"><feGaussianBlur stdDeviation="1"></feGaussianBlur></filter></defs></svg>